%TF.GenerationSoftware,KiCad,Pcbnew,10.0.0*%
%TF.CreationDate,2026-04-28T08:14:16-03:00*%
%TF.ProjectId,Dise_o_v1,44697365-f16f-45f7-9631-2e6b69636164,rev?*%
%TF.SameCoordinates,Original*%
%TF.FileFunction,Legend,Top*%
%TF.FilePolarity,Positive*%
%FSLAX46Y46*%
G04 Gerber Fmt 4.6, Leading zero omitted, Abs format (unit mm)*
G04 Created by KiCad (PCBNEW 10.0.0) date 2026-04-28 08:14:16*
%MOMM*%
%LPD*%
G01*
G04 APERTURE LIST*
%ADD10C,0.100000*%
%ADD11C,0.150000*%
%ADD12C,0.120000*%
G04 APERTURE END LIST*
D10*
X114872419Y-134838972D02*
X115872419Y-134505639D01*
X115872419Y-134505639D02*
X114872419Y-134172306D01*
X115777180Y-133267544D02*
X115824800Y-133315163D01*
X115824800Y-133315163D02*
X115872419Y-133458020D01*
X115872419Y-133458020D02*
X115872419Y-133553258D01*
X115872419Y-133553258D02*
X115824800Y-133696115D01*
X115824800Y-133696115D02*
X115729561Y-133791353D01*
X115729561Y-133791353D02*
X115634323Y-133838972D01*
X115634323Y-133838972D02*
X115443847Y-133886591D01*
X115443847Y-133886591D02*
X115300990Y-133886591D01*
X115300990Y-133886591D02*
X115110514Y-133838972D01*
X115110514Y-133838972D02*
X115015276Y-133791353D01*
X115015276Y-133791353D02*
X114920038Y-133696115D01*
X114920038Y-133696115D02*
X114872419Y-133553258D01*
X114872419Y-133553258D02*
X114872419Y-133458020D01*
X114872419Y-133458020D02*
X114920038Y-133315163D01*
X114920038Y-133315163D02*
X114967657Y-133267544D01*
X115777180Y-132267544D02*
X115824800Y-132315163D01*
X115824800Y-132315163D02*
X115872419Y-132458020D01*
X115872419Y-132458020D02*
X115872419Y-132553258D01*
X115872419Y-132553258D02*
X115824800Y-132696115D01*
X115824800Y-132696115D02*
X115729561Y-132791353D01*
X115729561Y-132791353D02*
X115634323Y-132838972D01*
X115634323Y-132838972D02*
X115443847Y-132886591D01*
X115443847Y-132886591D02*
X115300990Y-132886591D01*
X115300990Y-132886591D02*
X115110514Y-132838972D01*
X115110514Y-132838972D02*
X115015276Y-132791353D01*
X115015276Y-132791353D02*
X114920038Y-132696115D01*
X114920038Y-132696115D02*
X114872419Y-132553258D01*
X114872419Y-132553258D02*
X114872419Y-132458020D01*
X114872419Y-132458020D02*
X114920038Y-132315163D01*
X114920038Y-132315163D02*
X114967657Y-132267544D01*
X117920038Y-134172306D02*
X117872419Y-134267544D01*
X117872419Y-134267544D02*
X117872419Y-134410401D01*
X117872419Y-134410401D02*
X117920038Y-134553258D01*
X117920038Y-134553258D02*
X118015276Y-134648496D01*
X118015276Y-134648496D02*
X118110514Y-134696115D01*
X118110514Y-134696115D02*
X118300990Y-134743734D01*
X118300990Y-134743734D02*
X118443847Y-134743734D01*
X118443847Y-134743734D02*
X118634323Y-134696115D01*
X118634323Y-134696115D02*
X118729561Y-134648496D01*
X118729561Y-134648496D02*
X118824800Y-134553258D01*
X118824800Y-134553258D02*
X118872419Y-134410401D01*
X118872419Y-134410401D02*
X118872419Y-134315163D01*
X118872419Y-134315163D02*
X118824800Y-134172306D01*
X118824800Y-134172306D02*
X118777180Y-134124687D01*
X118777180Y-134124687D02*
X118443847Y-134124687D01*
X118443847Y-134124687D02*
X118443847Y-134315163D01*
X118872419Y-133696115D02*
X117872419Y-133696115D01*
X117872419Y-133696115D02*
X118872419Y-133124687D01*
X118872419Y-133124687D02*
X117872419Y-133124687D01*
X118872419Y-132648496D02*
X117872419Y-132648496D01*
X117872419Y-132648496D02*
X117872419Y-132410401D01*
X117872419Y-132410401D02*
X117920038Y-132267544D01*
X117920038Y-132267544D02*
X118015276Y-132172306D01*
X118015276Y-132172306D02*
X118110514Y-132124687D01*
X118110514Y-132124687D02*
X118300990Y-132077068D01*
X118300990Y-132077068D02*
X118443847Y-132077068D01*
X118443847Y-132077068D02*
X118634323Y-132124687D01*
X118634323Y-132124687D02*
X118729561Y-132172306D01*
X118729561Y-132172306D02*
X118824800Y-132267544D01*
X118824800Y-132267544D02*
X118872419Y-132410401D01*
X118872419Y-132410401D02*
X118872419Y-132648496D01*
X121824800Y-134743734D02*
X121872419Y-134600877D01*
X121872419Y-134600877D02*
X121872419Y-134362782D01*
X121872419Y-134362782D02*
X121824800Y-134267544D01*
X121824800Y-134267544D02*
X121777180Y-134219925D01*
X121777180Y-134219925D02*
X121681942Y-134172306D01*
X121681942Y-134172306D02*
X121586704Y-134172306D01*
X121586704Y-134172306D02*
X121491466Y-134219925D01*
X121491466Y-134219925D02*
X121443847Y-134267544D01*
X121443847Y-134267544D02*
X121396228Y-134362782D01*
X121396228Y-134362782D02*
X121348609Y-134553258D01*
X121348609Y-134553258D02*
X121300990Y-134648496D01*
X121300990Y-134648496D02*
X121253371Y-134696115D01*
X121253371Y-134696115D02*
X121158133Y-134743734D01*
X121158133Y-134743734D02*
X121062895Y-134743734D01*
X121062895Y-134743734D02*
X120967657Y-134696115D01*
X120967657Y-134696115D02*
X120920038Y-134648496D01*
X120920038Y-134648496D02*
X120872419Y-134553258D01*
X120872419Y-134553258D02*
X120872419Y-134315163D01*
X120872419Y-134315163D02*
X120920038Y-134172306D01*
X121777180Y-133172306D02*
X121824800Y-133219925D01*
X121824800Y-133219925D02*
X121872419Y-133362782D01*
X121872419Y-133362782D02*
X121872419Y-133458020D01*
X121872419Y-133458020D02*
X121824800Y-133600877D01*
X121824800Y-133600877D02*
X121729561Y-133696115D01*
X121729561Y-133696115D02*
X121634323Y-133743734D01*
X121634323Y-133743734D02*
X121443847Y-133791353D01*
X121443847Y-133791353D02*
X121300990Y-133791353D01*
X121300990Y-133791353D02*
X121110514Y-133743734D01*
X121110514Y-133743734D02*
X121015276Y-133696115D01*
X121015276Y-133696115D02*
X120920038Y-133600877D01*
X120920038Y-133600877D02*
X120872419Y-133458020D01*
X120872419Y-133458020D02*
X120872419Y-133362782D01*
X120872419Y-133362782D02*
X120920038Y-133219925D01*
X120920038Y-133219925D02*
X120967657Y-133172306D01*
X121872419Y-132267544D02*
X121872419Y-132743734D01*
X121872419Y-132743734D02*
X120872419Y-132743734D01*
X123824800Y-134743734D02*
X123872419Y-134600877D01*
X123872419Y-134600877D02*
X123872419Y-134362782D01*
X123872419Y-134362782D02*
X123824800Y-134267544D01*
X123824800Y-134267544D02*
X123777180Y-134219925D01*
X123777180Y-134219925D02*
X123681942Y-134172306D01*
X123681942Y-134172306D02*
X123586704Y-134172306D01*
X123586704Y-134172306D02*
X123491466Y-134219925D01*
X123491466Y-134219925D02*
X123443847Y-134267544D01*
X123443847Y-134267544D02*
X123396228Y-134362782D01*
X123396228Y-134362782D02*
X123348609Y-134553258D01*
X123348609Y-134553258D02*
X123300990Y-134648496D01*
X123300990Y-134648496D02*
X123253371Y-134696115D01*
X123253371Y-134696115D02*
X123158133Y-134743734D01*
X123158133Y-134743734D02*
X123062895Y-134743734D01*
X123062895Y-134743734D02*
X122967657Y-134696115D01*
X122967657Y-134696115D02*
X122920038Y-134648496D01*
X122920038Y-134648496D02*
X122872419Y-134553258D01*
X122872419Y-134553258D02*
X122872419Y-134315163D01*
X122872419Y-134315163D02*
X122920038Y-134172306D01*
X123872419Y-133743734D02*
X122872419Y-133743734D01*
X122872419Y-133743734D02*
X122872419Y-133505639D01*
X122872419Y-133505639D02*
X122920038Y-133362782D01*
X122920038Y-133362782D02*
X123015276Y-133267544D01*
X123015276Y-133267544D02*
X123110514Y-133219925D01*
X123110514Y-133219925D02*
X123300990Y-133172306D01*
X123300990Y-133172306D02*
X123443847Y-133172306D01*
X123443847Y-133172306D02*
X123634323Y-133219925D01*
X123634323Y-133219925D02*
X123729561Y-133267544D01*
X123729561Y-133267544D02*
X123824800Y-133362782D01*
X123824800Y-133362782D02*
X123872419Y-133505639D01*
X123872419Y-133505639D02*
X123872419Y-133743734D01*
X123586704Y-132791353D02*
X123586704Y-132315163D01*
X123872419Y-132886591D02*
X122872419Y-132553258D01*
X122872419Y-132553258D02*
X123872419Y-132219925D01*
X134920038Y-134172306D02*
X134872419Y-134267544D01*
X134872419Y-134267544D02*
X134872419Y-134410401D01*
X134872419Y-134410401D02*
X134920038Y-134553258D01*
X134920038Y-134553258D02*
X135015276Y-134648496D01*
X135015276Y-134648496D02*
X135110514Y-134696115D01*
X135110514Y-134696115D02*
X135300990Y-134743734D01*
X135300990Y-134743734D02*
X135443847Y-134743734D01*
X135443847Y-134743734D02*
X135634323Y-134696115D01*
X135634323Y-134696115D02*
X135729561Y-134648496D01*
X135729561Y-134648496D02*
X135824800Y-134553258D01*
X135824800Y-134553258D02*
X135872419Y-134410401D01*
X135872419Y-134410401D02*
X135872419Y-134315163D01*
X135872419Y-134315163D02*
X135824800Y-134172306D01*
X135824800Y-134172306D02*
X135777180Y-134124687D01*
X135777180Y-134124687D02*
X135443847Y-134124687D01*
X135443847Y-134124687D02*
X135443847Y-134315163D01*
X135872419Y-133696115D02*
X134872419Y-133696115D01*
X134872419Y-133696115D02*
X135872419Y-133124687D01*
X135872419Y-133124687D02*
X134872419Y-133124687D01*
X135872419Y-132648496D02*
X134872419Y-132648496D01*
X134872419Y-132648496D02*
X134872419Y-132410401D01*
X134872419Y-132410401D02*
X134920038Y-132267544D01*
X134920038Y-132267544D02*
X135015276Y-132172306D01*
X135015276Y-132172306D02*
X135110514Y-132124687D01*
X135110514Y-132124687D02*
X135300990Y-132077068D01*
X135300990Y-132077068D02*
X135443847Y-132077068D01*
X135443847Y-132077068D02*
X135634323Y-132124687D01*
X135634323Y-132124687D02*
X135729561Y-132172306D01*
X135729561Y-132172306D02*
X135824800Y-132267544D01*
X135824800Y-132267544D02*
X135872419Y-132410401D01*
X135872419Y-132410401D02*
X135872419Y-132648496D01*
X138491466Y-134696115D02*
X138491466Y-133934211D01*
X138872419Y-134315163D02*
X138110514Y-134315163D01*
X137872419Y-132981830D02*
X137872419Y-133458020D01*
X137872419Y-133458020D02*
X138348609Y-133505639D01*
X138348609Y-133505639D02*
X138300990Y-133458020D01*
X138300990Y-133458020D02*
X138253371Y-133362782D01*
X138253371Y-133362782D02*
X138253371Y-133124687D01*
X138253371Y-133124687D02*
X138300990Y-133029449D01*
X138300990Y-133029449D02*
X138348609Y-132981830D01*
X138348609Y-132981830D02*
X138443847Y-132934211D01*
X138443847Y-132934211D02*
X138681942Y-132934211D01*
X138681942Y-132934211D02*
X138777180Y-132981830D01*
X138777180Y-132981830D02*
X138824800Y-133029449D01*
X138824800Y-133029449D02*
X138872419Y-133124687D01*
X138872419Y-133124687D02*
X138872419Y-133362782D01*
X138872419Y-133362782D02*
X138824800Y-133458020D01*
X138824800Y-133458020D02*
X138777180Y-133505639D01*
X137872419Y-132648496D02*
X138872419Y-132315163D01*
X138872419Y-132315163D02*
X137872419Y-131981830D01*
X141872419Y-134696115D02*
X140872419Y-134696115D01*
X140872419Y-134696115D02*
X140872419Y-134315163D01*
X140872419Y-134315163D02*
X140920038Y-134219925D01*
X140920038Y-134219925D02*
X140967657Y-134172306D01*
X140967657Y-134172306D02*
X141062895Y-134124687D01*
X141062895Y-134124687D02*
X141205752Y-134124687D01*
X141205752Y-134124687D02*
X141300990Y-134172306D01*
X141300990Y-134172306D02*
X141348609Y-134219925D01*
X141348609Y-134219925D02*
X141396228Y-134315163D01*
X141396228Y-134315163D02*
X141396228Y-134696115D01*
X140872419Y-133791353D02*
X141872419Y-133553258D01*
X141872419Y-133553258D02*
X141158133Y-133362782D01*
X141158133Y-133362782D02*
X141872419Y-133172306D01*
X141872419Y-133172306D02*
X140872419Y-132934211D01*
X141872419Y-132553258D02*
X140872419Y-132553258D01*
X140872419Y-132553258D02*
X141586704Y-132219925D01*
X141586704Y-132219925D02*
X140872419Y-131886592D01*
X140872419Y-131886592D02*
X141872419Y-131886592D01*
X151920038Y-134172306D02*
X151872419Y-134267544D01*
X151872419Y-134267544D02*
X151872419Y-134410401D01*
X151872419Y-134410401D02*
X151920038Y-134553258D01*
X151920038Y-134553258D02*
X152015276Y-134648496D01*
X152015276Y-134648496D02*
X152110514Y-134696115D01*
X152110514Y-134696115D02*
X152300990Y-134743734D01*
X152300990Y-134743734D02*
X152443847Y-134743734D01*
X152443847Y-134743734D02*
X152634323Y-134696115D01*
X152634323Y-134696115D02*
X152729561Y-134648496D01*
X152729561Y-134648496D02*
X152824800Y-134553258D01*
X152824800Y-134553258D02*
X152872419Y-134410401D01*
X152872419Y-134410401D02*
X152872419Y-134315163D01*
X152872419Y-134315163D02*
X152824800Y-134172306D01*
X152824800Y-134172306D02*
X152777180Y-134124687D01*
X152777180Y-134124687D02*
X152443847Y-134124687D01*
X152443847Y-134124687D02*
X152443847Y-134315163D01*
X152872419Y-133696115D02*
X151872419Y-133696115D01*
X151872419Y-133696115D02*
X152872419Y-133124687D01*
X152872419Y-133124687D02*
X151872419Y-133124687D01*
X152872419Y-132648496D02*
X151872419Y-132648496D01*
X151872419Y-132648496D02*
X151872419Y-132410401D01*
X151872419Y-132410401D02*
X151920038Y-132267544D01*
X151920038Y-132267544D02*
X152015276Y-132172306D01*
X152015276Y-132172306D02*
X152110514Y-132124687D01*
X152110514Y-132124687D02*
X152300990Y-132077068D01*
X152300990Y-132077068D02*
X152443847Y-132077068D01*
X152443847Y-132077068D02*
X152634323Y-132124687D01*
X152634323Y-132124687D02*
X152729561Y-132172306D01*
X152729561Y-132172306D02*
X152824800Y-132267544D01*
X152824800Y-132267544D02*
X152872419Y-132410401D01*
X152872419Y-132410401D02*
X152872419Y-132648496D01*
X154348609Y-135696115D02*
X154348609Y-135362782D01*
X154872419Y-135219925D02*
X154872419Y-135696115D01*
X154872419Y-135696115D02*
X153872419Y-135696115D01*
X153872419Y-135696115D02*
X153872419Y-135219925D01*
X154777180Y-134219925D02*
X154824800Y-134267544D01*
X154824800Y-134267544D02*
X154872419Y-134410401D01*
X154872419Y-134410401D02*
X154872419Y-134505639D01*
X154872419Y-134505639D02*
X154824800Y-134648496D01*
X154824800Y-134648496D02*
X154729561Y-134743734D01*
X154729561Y-134743734D02*
X154634323Y-134791353D01*
X154634323Y-134791353D02*
X154443847Y-134838972D01*
X154443847Y-134838972D02*
X154300990Y-134838972D01*
X154300990Y-134838972D02*
X154110514Y-134791353D01*
X154110514Y-134791353D02*
X154015276Y-134743734D01*
X154015276Y-134743734D02*
X153920038Y-134648496D01*
X153920038Y-134648496D02*
X153872419Y-134505639D01*
X153872419Y-134505639D02*
X153872419Y-134410401D01*
X153872419Y-134410401D02*
X153920038Y-134267544D01*
X153920038Y-134267544D02*
X153967657Y-134219925D01*
X154872419Y-133791353D02*
X153872419Y-133791353D01*
X154348609Y-133791353D02*
X154348609Y-133219925D01*
X154872419Y-133219925D02*
X153872419Y-133219925D01*
X153872419Y-132553258D02*
X153872419Y-132362782D01*
X153872419Y-132362782D02*
X153920038Y-132267544D01*
X153920038Y-132267544D02*
X154015276Y-132172306D01*
X154015276Y-132172306D02*
X154205752Y-132124687D01*
X154205752Y-132124687D02*
X154539085Y-132124687D01*
X154539085Y-132124687D02*
X154729561Y-132172306D01*
X154729561Y-132172306D02*
X154824800Y-132267544D01*
X154824800Y-132267544D02*
X154872419Y-132362782D01*
X154872419Y-132362782D02*
X154872419Y-132553258D01*
X154872419Y-132553258D02*
X154824800Y-132648496D01*
X154824800Y-132648496D02*
X154729561Y-132743734D01*
X154729561Y-132743734D02*
X154539085Y-132791353D01*
X154539085Y-132791353D02*
X154205752Y-132791353D01*
X154205752Y-132791353D02*
X154015276Y-132743734D01*
X154015276Y-132743734D02*
X153920038Y-132648496D01*
X153920038Y-132648496D02*
X153872419Y-132553258D01*
X156872419Y-134838972D02*
X156872419Y-134267544D01*
X157872419Y-134553258D02*
X156872419Y-134553258D01*
X157872419Y-133362782D02*
X157396228Y-133696115D01*
X157872419Y-133934210D02*
X156872419Y-133934210D01*
X156872419Y-133934210D02*
X156872419Y-133553258D01*
X156872419Y-133553258D02*
X156920038Y-133458020D01*
X156920038Y-133458020D02*
X156967657Y-133410401D01*
X156967657Y-133410401D02*
X157062895Y-133362782D01*
X157062895Y-133362782D02*
X157205752Y-133362782D01*
X157205752Y-133362782D02*
X157300990Y-133410401D01*
X157300990Y-133410401D02*
X157348609Y-133458020D01*
X157348609Y-133458020D02*
X157396228Y-133553258D01*
X157396228Y-133553258D02*
X157396228Y-133934210D01*
X157872419Y-132934210D02*
X156872419Y-132934210D01*
X156920038Y-131934211D02*
X156872419Y-132029449D01*
X156872419Y-132029449D02*
X156872419Y-132172306D01*
X156872419Y-132172306D02*
X156920038Y-132315163D01*
X156920038Y-132315163D02*
X157015276Y-132410401D01*
X157015276Y-132410401D02*
X157110514Y-132458020D01*
X157110514Y-132458020D02*
X157300990Y-132505639D01*
X157300990Y-132505639D02*
X157443847Y-132505639D01*
X157443847Y-132505639D02*
X157634323Y-132458020D01*
X157634323Y-132458020D02*
X157729561Y-132410401D01*
X157729561Y-132410401D02*
X157824800Y-132315163D01*
X157824800Y-132315163D02*
X157872419Y-132172306D01*
X157872419Y-132172306D02*
X157872419Y-132077068D01*
X157872419Y-132077068D02*
X157824800Y-131934211D01*
X157824800Y-131934211D02*
X157777180Y-131886592D01*
X157777180Y-131886592D02*
X157443847Y-131886592D01*
X157443847Y-131886592D02*
X157443847Y-132077068D01*
X159848651Y-134800831D02*
X160848651Y-134467498D01*
X160848651Y-134467498D02*
X159848651Y-134134165D01*
X160753412Y-133229403D02*
X160801032Y-133277022D01*
X160801032Y-133277022D02*
X160848651Y-133419879D01*
X160848651Y-133419879D02*
X160848651Y-133515117D01*
X160848651Y-133515117D02*
X160801032Y-133657974D01*
X160801032Y-133657974D02*
X160705793Y-133753212D01*
X160705793Y-133753212D02*
X160610555Y-133800831D01*
X160610555Y-133800831D02*
X160420079Y-133848450D01*
X160420079Y-133848450D02*
X160277222Y-133848450D01*
X160277222Y-133848450D02*
X160086746Y-133800831D01*
X160086746Y-133800831D02*
X159991508Y-133753212D01*
X159991508Y-133753212D02*
X159896270Y-133657974D01*
X159896270Y-133657974D02*
X159848651Y-133515117D01*
X159848651Y-133515117D02*
X159848651Y-133419879D01*
X159848651Y-133419879D02*
X159896270Y-133277022D01*
X159896270Y-133277022D02*
X159943889Y-133229403D01*
X160753412Y-132229403D02*
X160801032Y-132277022D01*
X160801032Y-132277022D02*
X160848651Y-132419879D01*
X160848651Y-132419879D02*
X160848651Y-132515117D01*
X160848651Y-132515117D02*
X160801032Y-132657974D01*
X160801032Y-132657974D02*
X160705793Y-132753212D01*
X160705793Y-132753212D02*
X160610555Y-132800831D01*
X160610555Y-132800831D02*
X160420079Y-132848450D01*
X160420079Y-132848450D02*
X160277222Y-132848450D01*
X160277222Y-132848450D02*
X160086746Y-132800831D01*
X160086746Y-132800831D02*
X159991508Y-132753212D01*
X159991508Y-132753212D02*
X159896270Y-132657974D01*
X159896270Y-132657974D02*
X159848651Y-132515117D01*
X159848651Y-132515117D02*
X159848651Y-132419879D01*
X159848651Y-132419879D02*
X159896270Y-132277022D01*
X159896270Y-132277022D02*
X159943889Y-132229403D01*
X191420038Y-127172306D02*
X191372419Y-127267544D01*
X191372419Y-127267544D02*
X191372419Y-127410401D01*
X191372419Y-127410401D02*
X191420038Y-127553258D01*
X191420038Y-127553258D02*
X191515276Y-127648496D01*
X191515276Y-127648496D02*
X191610514Y-127696115D01*
X191610514Y-127696115D02*
X191800990Y-127743734D01*
X191800990Y-127743734D02*
X191943847Y-127743734D01*
X191943847Y-127743734D02*
X192134323Y-127696115D01*
X192134323Y-127696115D02*
X192229561Y-127648496D01*
X192229561Y-127648496D02*
X192324800Y-127553258D01*
X192324800Y-127553258D02*
X192372419Y-127410401D01*
X192372419Y-127410401D02*
X192372419Y-127315163D01*
X192372419Y-127315163D02*
X192324800Y-127172306D01*
X192324800Y-127172306D02*
X192277180Y-127124687D01*
X192277180Y-127124687D02*
X191943847Y-127124687D01*
X191943847Y-127124687D02*
X191943847Y-127315163D01*
X192372419Y-126696115D02*
X191372419Y-126696115D01*
X191372419Y-126696115D02*
X192372419Y-126124687D01*
X192372419Y-126124687D02*
X191372419Y-126124687D01*
X192372419Y-125648496D02*
X191372419Y-125648496D01*
X191372419Y-125648496D02*
X191372419Y-125410401D01*
X191372419Y-125410401D02*
X191420038Y-125267544D01*
X191420038Y-125267544D02*
X191515276Y-125172306D01*
X191515276Y-125172306D02*
X191610514Y-125124687D01*
X191610514Y-125124687D02*
X191800990Y-125077068D01*
X191800990Y-125077068D02*
X191943847Y-125077068D01*
X191943847Y-125077068D02*
X192134323Y-125124687D01*
X192134323Y-125124687D02*
X192229561Y-125172306D01*
X192229561Y-125172306D02*
X192324800Y-125267544D01*
X192324800Y-125267544D02*
X192372419Y-125410401D01*
X192372419Y-125410401D02*
X192372419Y-125648496D01*
X191991466Y-133196115D02*
X191991466Y-132434211D01*
X192372419Y-132815163D02*
X191610514Y-132815163D01*
X191372419Y-131481830D02*
X191372419Y-131958020D01*
X191372419Y-131958020D02*
X191848609Y-132005639D01*
X191848609Y-132005639D02*
X191800990Y-131958020D01*
X191800990Y-131958020D02*
X191753371Y-131862782D01*
X191753371Y-131862782D02*
X191753371Y-131624687D01*
X191753371Y-131624687D02*
X191800990Y-131529449D01*
X191800990Y-131529449D02*
X191848609Y-131481830D01*
X191848609Y-131481830D02*
X191943847Y-131434211D01*
X191943847Y-131434211D02*
X192181942Y-131434211D01*
X192181942Y-131434211D02*
X192277180Y-131481830D01*
X192277180Y-131481830D02*
X192324800Y-131529449D01*
X192324800Y-131529449D02*
X192372419Y-131624687D01*
X192372419Y-131624687D02*
X192372419Y-131862782D01*
X192372419Y-131862782D02*
X192324800Y-131958020D01*
X192324800Y-131958020D02*
X192277180Y-132005639D01*
X191372419Y-131148496D02*
X192372419Y-130815163D01*
X192372419Y-130815163D02*
X191372419Y-130481830D01*
D11*
X135666666Y-127407200D02*
X135809523Y-127454819D01*
X135809523Y-127454819D02*
X136047618Y-127454819D01*
X136047618Y-127454819D02*
X136142856Y-127407200D01*
X136142856Y-127407200D02*
X136190475Y-127359580D01*
X136190475Y-127359580D02*
X136238094Y-127264342D01*
X136238094Y-127264342D02*
X136238094Y-127169104D01*
X136238094Y-127169104D02*
X136190475Y-127073866D01*
X136190475Y-127073866D02*
X136142856Y-127026247D01*
X136142856Y-127026247D02*
X136047618Y-126978628D01*
X136047618Y-126978628D02*
X135857142Y-126931009D01*
X135857142Y-126931009D02*
X135761904Y-126883390D01*
X135761904Y-126883390D02*
X135714285Y-126835771D01*
X135714285Y-126835771D02*
X135666666Y-126740533D01*
X135666666Y-126740533D02*
X135666666Y-126645295D01*
X135666666Y-126645295D02*
X135714285Y-126550057D01*
X135714285Y-126550057D02*
X135761904Y-126502438D01*
X135761904Y-126502438D02*
X135857142Y-126454819D01*
X135857142Y-126454819D02*
X136095237Y-126454819D01*
X136095237Y-126454819D02*
X136238094Y-126502438D01*
X137047618Y-127407200D02*
X136952380Y-127454819D01*
X136952380Y-127454819D02*
X136761904Y-127454819D01*
X136761904Y-127454819D02*
X136666666Y-127407200D01*
X136666666Y-127407200D02*
X136619047Y-127311961D01*
X136619047Y-127311961D02*
X136619047Y-126931009D01*
X136619047Y-126931009D02*
X136666666Y-126835771D01*
X136666666Y-126835771D02*
X136761904Y-126788152D01*
X136761904Y-126788152D02*
X136952380Y-126788152D01*
X136952380Y-126788152D02*
X137047618Y-126835771D01*
X137047618Y-126835771D02*
X137095237Y-126931009D01*
X137095237Y-126931009D02*
X137095237Y-127026247D01*
X137095237Y-127026247D02*
X136619047Y-127121485D01*
X137523809Y-127454819D02*
X137523809Y-126788152D01*
X137523809Y-126978628D02*
X137571428Y-126883390D01*
X137571428Y-126883390D02*
X137619047Y-126835771D01*
X137619047Y-126835771D02*
X137714285Y-126788152D01*
X137714285Y-126788152D02*
X137809523Y-126788152D01*
X138047619Y-126788152D02*
X138285714Y-127454819D01*
X138285714Y-127454819D02*
X138523809Y-126788152D01*
X139047619Y-127454819D02*
X138952381Y-127407200D01*
X138952381Y-127407200D02*
X138904762Y-127359580D01*
X138904762Y-127359580D02*
X138857143Y-127264342D01*
X138857143Y-127264342D02*
X138857143Y-126978628D01*
X138857143Y-126978628D02*
X138904762Y-126883390D01*
X138904762Y-126883390D02*
X138952381Y-126835771D01*
X138952381Y-126835771D02*
X139047619Y-126788152D01*
X139047619Y-126788152D02*
X139190476Y-126788152D01*
X139190476Y-126788152D02*
X139285714Y-126835771D01*
X139285714Y-126835771D02*
X139333333Y-126883390D01*
X139333333Y-126883390D02*
X139380952Y-126978628D01*
X139380952Y-126978628D02*
X139380952Y-127264342D01*
X139380952Y-127264342D02*
X139333333Y-127359580D01*
X139333333Y-127359580D02*
X139285714Y-127407200D01*
X139285714Y-127407200D02*
X139190476Y-127454819D01*
X139190476Y-127454819D02*
X139047619Y-127454819D01*
X140333333Y-127454819D02*
X139761905Y-127454819D01*
X140047619Y-127454819D02*
X140047619Y-126454819D01*
X140047619Y-126454819D02*
X139952381Y-126597676D01*
X139952381Y-126597676D02*
X139857143Y-126692914D01*
X139857143Y-126692914D02*
X139761905Y-126740533D01*
X162809523Y-141931009D02*
X162476190Y-141931009D01*
X162476190Y-142454819D02*
X162476190Y-141454819D01*
X162476190Y-141454819D02*
X162952380Y-141454819D01*
X163761904Y-141788152D02*
X163761904Y-142454819D01*
X163333333Y-141788152D02*
X163333333Y-142311961D01*
X163333333Y-142311961D02*
X163380952Y-142407200D01*
X163380952Y-142407200D02*
X163476190Y-142454819D01*
X163476190Y-142454819D02*
X163619047Y-142454819D01*
X163619047Y-142454819D02*
X163714285Y-142407200D01*
X163714285Y-142407200D02*
X163761904Y-142359580D01*
X164619047Y-142407200D02*
X164523809Y-142454819D01*
X164523809Y-142454819D02*
X164333333Y-142454819D01*
X164333333Y-142454819D02*
X164238095Y-142407200D01*
X164238095Y-142407200D02*
X164190476Y-142311961D01*
X164190476Y-142311961D02*
X164190476Y-141931009D01*
X164190476Y-141931009D02*
X164238095Y-141835771D01*
X164238095Y-141835771D02*
X164333333Y-141788152D01*
X164333333Y-141788152D02*
X164523809Y-141788152D01*
X164523809Y-141788152D02*
X164619047Y-141835771D01*
X164619047Y-141835771D02*
X164666666Y-141931009D01*
X164666666Y-141931009D02*
X164666666Y-142026247D01*
X164666666Y-142026247D02*
X164190476Y-142121485D01*
X165095238Y-141788152D02*
X165095238Y-142454819D01*
X165095238Y-141883390D02*
X165142857Y-141835771D01*
X165142857Y-141835771D02*
X165238095Y-141788152D01*
X165238095Y-141788152D02*
X165380952Y-141788152D01*
X165380952Y-141788152D02*
X165476190Y-141835771D01*
X165476190Y-141835771D02*
X165523809Y-141931009D01*
X165523809Y-141931009D02*
X165523809Y-142454819D01*
X165857143Y-141788152D02*
X166238095Y-141788152D01*
X166000000Y-141454819D02*
X166000000Y-142311961D01*
X166000000Y-142311961D02*
X166047619Y-142407200D01*
X166047619Y-142407200D02*
X166142857Y-142454819D01*
X166142857Y-142454819D02*
X166238095Y-142454819D01*
X166952381Y-142407200D02*
X166857143Y-142454819D01*
X166857143Y-142454819D02*
X166666667Y-142454819D01*
X166666667Y-142454819D02*
X166571429Y-142407200D01*
X166571429Y-142407200D02*
X166523810Y-142311961D01*
X166523810Y-142311961D02*
X166523810Y-141931009D01*
X166523810Y-141931009D02*
X166571429Y-141835771D01*
X166571429Y-141835771D02*
X166666667Y-141788152D01*
X166666667Y-141788152D02*
X166857143Y-141788152D01*
X166857143Y-141788152D02*
X166952381Y-141835771D01*
X166952381Y-141835771D02*
X167000000Y-141931009D01*
X167000000Y-141931009D02*
X167000000Y-142026247D01*
X167000000Y-142026247D02*
X166523810Y-142121485D01*
X167190477Y-142550057D02*
X167952381Y-142550057D01*
X168047620Y-141454819D02*
X168380953Y-142454819D01*
X168380953Y-142454819D02*
X168714286Y-141454819D01*
X169619048Y-142359580D02*
X169571429Y-142407200D01*
X169571429Y-142407200D02*
X169428572Y-142454819D01*
X169428572Y-142454819D02*
X169333334Y-142454819D01*
X169333334Y-142454819D02*
X169190477Y-142407200D01*
X169190477Y-142407200D02*
X169095239Y-142311961D01*
X169095239Y-142311961D02*
X169047620Y-142216723D01*
X169047620Y-142216723D02*
X169000001Y-142026247D01*
X169000001Y-142026247D02*
X169000001Y-141883390D01*
X169000001Y-141883390D02*
X169047620Y-141692914D01*
X169047620Y-141692914D02*
X169095239Y-141597676D01*
X169095239Y-141597676D02*
X169190477Y-141502438D01*
X169190477Y-141502438D02*
X169333334Y-141454819D01*
X169333334Y-141454819D02*
X169428572Y-141454819D01*
X169428572Y-141454819D02*
X169571429Y-141502438D01*
X169571429Y-141502438D02*
X169619048Y-141550057D01*
X170619048Y-142359580D02*
X170571429Y-142407200D01*
X170571429Y-142407200D02*
X170428572Y-142454819D01*
X170428572Y-142454819D02*
X170333334Y-142454819D01*
X170333334Y-142454819D02*
X170190477Y-142407200D01*
X170190477Y-142407200D02*
X170095239Y-142311961D01*
X170095239Y-142311961D02*
X170047620Y-142216723D01*
X170047620Y-142216723D02*
X170000001Y-142026247D01*
X170000001Y-142026247D02*
X170000001Y-141883390D01*
X170000001Y-141883390D02*
X170047620Y-141692914D01*
X170047620Y-141692914D02*
X170095239Y-141597676D01*
X170095239Y-141597676D02*
X170190477Y-141502438D01*
X170190477Y-141502438D02*
X170333334Y-141454819D01*
X170333334Y-141454819D02*
X170428572Y-141454819D01*
X170428572Y-141454819D02*
X170571429Y-141502438D01*
X170571429Y-141502438D02*
X170619048Y-141550057D01*
X171571429Y-142454819D02*
X171000001Y-142454819D01*
X171285715Y-142454819D02*
X171285715Y-141454819D01*
X171285715Y-141454819D02*
X171190477Y-141597676D01*
X171190477Y-141597676D02*
X171095239Y-141692914D01*
X171095239Y-141692914D02*
X171000001Y-141740533D01*
X146055516Y-62098463D02*
X146531706Y-62098463D01*
X145960278Y-62384178D02*
X146293611Y-61384178D01*
X146293611Y-61384178D02*
X146626944Y-62384178D01*
X147484087Y-62384178D02*
X146912659Y-62384178D01*
X147198373Y-62384178D02*
X147198373Y-61384178D01*
X147198373Y-61384178D02*
X147103135Y-61527035D01*
X147103135Y-61527035D02*
X147007897Y-61622273D01*
X147007897Y-61622273D02*
X146912659Y-61669892D01*
X152190476Y-127454819D02*
X152190476Y-126454819D01*
X152190476Y-126931009D02*
X152761904Y-126931009D01*
X152761904Y-127454819D02*
X152761904Y-126454819D01*
X153809523Y-127359580D02*
X153761904Y-127407200D01*
X153761904Y-127407200D02*
X153619047Y-127454819D01*
X153619047Y-127454819D02*
X153523809Y-127454819D01*
X153523809Y-127454819D02*
X153380952Y-127407200D01*
X153380952Y-127407200D02*
X153285714Y-127311961D01*
X153285714Y-127311961D02*
X153238095Y-127216723D01*
X153238095Y-127216723D02*
X153190476Y-127026247D01*
X153190476Y-127026247D02*
X153190476Y-126883390D01*
X153190476Y-126883390D02*
X153238095Y-126692914D01*
X153238095Y-126692914D02*
X153285714Y-126597676D01*
X153285714Y-126597676D02*
X153380952Y-126502438D01*
X153380952Y-126502438D02*
X153523809Y-126454819D01*
X153523809Y-126454819D02*
X153619047Y-126454819D01*
X153619047Y-126454819D02*
X153761904Y-126502438D01*
X153761904Y-126502438D02*
X153809523Y-126550057D01*
X154238095Y-127073866D02*
X155000000Y-127073866D01*
X155428571Y-127407200D02*
X155571428Y-127454819D01*
X155571428Y-127454819D02*
X155809523Y-127454819D01*
X155809523Y-127454819D02*
X155904761Y-127407200D01*
X155904761Y-127407200D02*
X155952380Y-127359580D01*
X155952380Y-127359580D02*
X155999999Y-127264342D01*
X155999999Y-127264342D02*
X155999999Y-127169104D01*
X155999999Y-127169104D02*
X155952380Y-127073866D01*
X155952380Y-127073866D02*
X155904761Y-127026247D01*
X155904761Y-127026247D02*
X155809523Y-126978628D01*
X155809523Y-126978628D02*
X155619047Y-126931009D01*
X155619047Y-126931009D02*
X155523809Y-126883390D01*
X155523809Y-126883390D02*
X155476190Y-126835771D01*
X155476190Y-126835771D02*
X155428571Y-126740533D01*
X155428571Y-126740533D02*
X155428571Y-126645295D01*
X155428571Y-126645295D02*
X155476190Y-126550057D01*
X155476190Y-126550057D02*
X155523809Y-126502438D01*
X155523809Y-126502438D02*
X155619047Y-126454819D01*
X155619047Y-126454819D02*
X155857142Y-126454819D01*
X155857142Y-126454819D02*
X155999999Y-126502438D01*
X156999999Y-127454819D02*
X156666666Y-126978628D01*
X156428571Y-127454819D02*
X156428571Y-126454819D01*
X156428571Y-126454819D02*
X156809523Y-126454819D01*
X156809523Y-126454819D02*
X156904761Y-126502438D01*
X156904761Y-126502438D02*
X156952380Y-126550057D01*
X156952380Y-126550057D02*
X156999999Y-126645295D01*
X156999999Y-126645295D02*
X156999999Y-126788152D01*
X156999999Y-126788152D02*
X156952380Y-126883390D01*
X156952380Y-126883390D02*
X156904761Y-126931009D01*
X156904761Y-126931009D02*
X156809523Y-126978628D01*
X156809523Y-126978628D02*
X156428571Y-126978628D01*
X157619047Y-126454819D02*
X157714285Y-126454819D01*
X157714285Y-126454819D02*
X157809523Y-126502438D01*
X157809523Y-126502438D02*
X157857142Y-126550057D01*
X157857142Y-126550057D02*
X157904761Y-126645295D01*
X157904761Y-126645295D02*
X157952380Y-126835771D01*
X157952380Y-126835771D02*
X157952380Y-127073866D01*
X157952380Y-127073866D02*
X157904761Y-127264342D01*
X157904761Y-127264342D02*
X157857142Y-127359580D01*
X157857142Y-127359580D02*
X157809523Y-127407200D01*
X157809523Y-127407200D02*
X157714285Y-127454819D01*
X157714285Y-127454819D02*
X157619047Y-127454819D01*
X157619047Y-127454819D02*
X157523809Y-127407200D01*
X157523809Y-127407200D02*
X157476190Y-127359580D01*
X157476190Y-127359580D02*
X157428571Y-127264342D01*
X157428571Y-127264342D02*
X157380952Y-127073866D01*
X157380952Y-127073866D02*
X157380952Y-126835771D01*
X157380952Y-126835771D02*
X157428571Y-126645295D01*
X157428571Y-126645295D02*
X157476190Y-126550057D01*
X157476190Y-126550057D02*
X157523809Y-126502438D01*
X157523809Y-126502438D02*
X157619047Y-126454819D01*
X158809523Y-126788152D02*
X158809523Y-127454819D01*
X158571428Y-126407200D02*
X158333333Y-127121485D01*
X158333333Y-127121485D02*
X158952380Y-127121485D01*
X159857142Y-127454819D02*
X159285714Y-127454819D01*
X159571428Y-127454819D02*
X159571428Y-126454819D01*
X159571428Y-126454819D02*
X159476190Y-126597676D01*
X159476190Y-126597676D02*
X159380952Y-126692914D01*
X159380952Y-126692914D02*
X159285714Y-126740533D01*
X179778509Y-131809524D02*
X179826128Y-131666667D01*
X179826128Y-131666667D02*
X179873747Y-131619048D01*
X179873747Y-131619048D02*
X179968985Y-131571429D01*
X179968985Y-131571429D02*
X180111842Y-131571429D01*
X180111842Y-131571429D02*
X180207080Y-131619048D01*
X180207080Y-131619048D02*
X180254700Y-131666667D01*
X180254700Y-131666667D02*
X180302319Y-131761905D01*
X180302319Y-131761905D02*
X180302319Y-132142857D01*
X180302319Y-132142857D02*
X179302319Y-132142857D01*
X179302319Y-132142857D02*
X179302319Y-131809524D01*
X179302319Y-131809524D02*
X179349938Y-131714286D01*
X179349938Y-131714286D02*
X179397557Y-131666667D01*
X179397557Y-131666667D02*
X179492795Y-131619048D01*
X179492795Y-131619048D02*
X179588033Y-131619048D01*
X179588033Y-131619048D02*
X179683271Y-131666667D01*
X179683271Y-131666667D02*
X179730890Y-131714286D01*
X179730890Y-131714286D02*
X179778509Y-131809524D01*
X179778509Y-131809524D02*
X179778509Y-132142857D01*
X180302319Y-131000000D02*
X180254700Y-131095238D01*
X180254700Y-131095238D02*
X180207080Y-131142857D01*
X180207080Y-131142857D02*
X180111842Y-131190476D01*
X180111842Y-131190476D02*
X179826128Y-131190476D01*
X179826128Y-131190476D02*
X179730890Y-131142857D01*
X179730890Y-131142857D02*
X179683271Y-131095238D01*
X179683271Y-131095238D02*
X179635652Y-131000000D01*
X179635652Y-131000000D02*
X179635652Y-130857143D01*
X179635652Y-130857143D02*
X179683271Y-130761905D01*
X179683271Y-130761905D02*
X179730890Y-130714286D01*
X179730890Y-130714286D02*
X179826128Y-130666667D01*
X179826128Y-130666667D02*
X180111842Y-130666667D01*
X180111842Y-130666667D02*
X180207080Y-130714286D01*
X180207080Y-130714286D02*
X180254700Y-130761905D01*
X180254700Y-130761905D02*
X180302319Y-130857143D01*
X180302319Y-130857143D02*
X180302319Y-131000000D01*
X180302319Y-130238095D02*
X179635652Y-130238095D01*
X179826128Y-130238095D02*
X179730890Y-130190476D01*
X179730890Y-130190476D02*
X179683271Y-130142857D01*
X179683271Y-130142857D02*
X179635652Y-130047619D01*
X179635652Y-130047619D02*
X179635652Y-129952381D01*
X179635652Y-129619047D02*
X180302319Y-129619047D01*
X179730890Y-129619047D02*
X179683271Y-129571428D01*
X179683271Y-129571428D02*
X179635652Y-129476190D01*
X179635652Y-129476190D02*
X179635652Y-129333333D01*
X179635652Y-129333333D02*
X179683271Y-129238095D01*
X179683271Y-129238095D02*
X179778509Y-129190476D01*
X179778509Y-129190476D02*
X180302319Y-129190476D01*
X180254700Y-128333333D02*
X180302319Y-128428571D01*
X180302319Y-128428571D02*
X180302319Y-128619047D01*
X180302319Y-128619047D02*
X180254700Y-128714285D01*
X180254700Y-128714285D02*
X180159461Y-128761904D01*
X180159461Y-128761904D02*
X179778509Y-128761904D01*
X179778509Y-128761904D02*
X179683271Y-128714285D01*
X179683271Y-128714285D02*
X179635652Y-128619047D01*
X179635652Y-128619047D02*
X179635652Y-128428571D01*
X179635652Y-128428571D02*
X179683271Y-128333333D01*
X179683271Y-128333333D02*
X179778509Y-128285714D01*
X179778509Y-128285714D02*
X179873747Y-128285714D01*
X179873747Y-128285714D02*
X179968985Y-128761904D01*
X180302319Y-127857142D02*
X179635652Y-127857142D01*
X179826128Y-127857142D02*
X179730890Y-127809523D01*
X179730890Y-127809523D02*
X179683271Y-127761904D01*
X179683271Y-127761904D02*
X179635652Y-127666666D01*
X179635652Y-127666666D02*
X179635652Y-127571428D01*
X180302319Y-126809523D02*
X179778509Y-126809523D01*
X179778509Y-126809523D02*
X179683271Y-126857142D01*
X179683271Y-126857142D02*
X179635652Y-126952380D01*
X179635652Y-126952380D02*
X179635652Y-127142856D01*
X179635652Y-127142856D02*
X179683271Y-127238094D01*
X180254700Y-126809523D02*
X180302319Y-126904761D01*
X180302319Y-126904761D02*
X180302319Y-127142856D01*
X180302319Y-127142856D02*
X180254700Y-127238094D01*
X180254700Y-127238094D02*
X180159461Y-127285713D01*
X180159461Y-127285713D02*
X180064223Y-127285713D01*
X180064223Y-127285713D02*
X179968985Y-127238094D01*
X179968985Y-127238094D02*
X179921366Y-127142856D01*
X179921366Y-127142856D02*
X179921366Y-126904761D01*
X179921366Y-126904761D02*
X179873747Y-126809523D01*
X180302319Y-125809523D02*
X180302319Y-126380951D01*
X180302319Y-126095237D02*
X179302319Y-126095237D01*
X179302319Y-126095237D02*
X179445176Y-126190475D01*
X179445176Y-126190475D02*
X179540414Y-126285713D01*
X179540414Y-126285713D02*
X179588033Y-126380951D01*
X173714285Y-141931009D02*
X173380952Y-141931009D01*
X173380952Y-142454819D02*
X173380952Y-141454819D01*
X173380952Y-141454819D02*
X173857142Y-141454819D01*
X174666666Y-141788152D02*
X174666666Y-142454819D01*
X174238095Y-141788152D02*
X174238095Y-142311961D01*
X174238095Y-142311961D02*
X174285714Y-142407200D01*
X174285714Y-142407200D02*
X174380952Y-142454819D01*
X174380952Y-142454819D02*
X174523809Y-142454819D01*
X174523809Y-142454819D02*
X174619047Y-142407200D01*
X174619047Y-142407200D02*
X174666666Y-142359580D01*
X175523809Y-142407200D02*
X175428571Y-142454819D01*
X175428571Y-142454819D02*
X175238095Y-142454819D01*
X175238095Y-142454819D02*
X175142857Y-142407200D01*
X175142857Y-142407200D02*
X175095238Y-142311961D01*
X175095238Y-142311961D02*
X175095238Y-141931009D01*
X175095238Y-141931009D02*
X175142857Y-141835771D01*
X175142857Y-141835771D02*
X175238095Y-141788152D01*
X175238095Y-141788152D02*
X175428571Y-141788152D01*
X175428571Y-141788152D02*
X175523809Y-141835771D01*
X175523809Y-141835771D02*
X175571428Y-141931009D01*
X175571428Y-141931009D02*
X175571428Y-142026247D01*
X175571428Y-142026247D02*
X175095238Y-142121485D01*
X176000000Y-141788152D02*
X176000000Y-142454819D01*
X176000000Y-141883390D02*
X176047619Y-141835771D01*
X176047619Y-141835771D02*
X176142857Y-141788152D01*
X176142857Y-141788152D02*
X176285714Y-141788152D01*
X176285714Y-141788152D02*
X176380952Y-141835771D01*
X176380952Y-141835771D02*
X176428571Y-141931009D01*
X176428571Y-141931009D02*
X176428571Y-142454819D01*
X176761905Y-141788152D02*
X177142857Y-141788152D01*
X176904762Y-141454819D02*
X176904762Y-142311961D01*
X176904762Y-142311961D02*
X176952381Y-142407200D01*
X176952381Y-142407200D02*
X177047619Y-142454819D01*
X177047619Y-142454819D02*
X177142857Y-142454819D01*
X177857143Y-142407200D02*
X177761905Y-142454819D01*
X177761905Y-142454819D02*
X177571429Y-142454819D01*
X177571429Y-142454819D02*
X177476191Y-142407200D01*
X177476191Y-142407200D02*
X177428572Y-142311961D01*
X177428572Y-142311961D02*
X177428572Y-141931009D01*
X177428572Y-141931009D02*
X177476191Y-141835771D01*
X177476191Y-141835771D02*
X177571429Y-141788152D01*
X177571429Y-141788152D02*
X177761905Y-141788152D01*
X177761905Y-141788152D02*
X177857143Y-141835771D01*
X177857143Y-141835771D02*
X177904762Y-141931009D01*
X177904762Y-141931009D02*
X177904762Y-142026247D01*
X177904762Y-142026247D02*
X177428572Y-142121485D01*
X178095239Y-142550057D02*
X178857143Y-142550057D01*
X179619048Y-141502438D02*
X179523810Y-141454819D01*
X179523810Y-141454819D02*
X179380953Y-141454819D01*
X179380953Y-141454819D02*
X179238096Y-141502438D01*
X179238096Y-141502438D02*
X179142858Y-141597676D01*
X179142858Y-141597676D02*
X179095239Y-141692914D01*
X179095239Y-141692914D02*
X179047620Y-141883390D01*
X179047620Y-141883390D02*
X179047620Y-142026247D01*
X179047620Y-142026247D02*
X179095239Y-142216723D01*
X179095239Y-142216723D02*
X179142858Y-142311961D01*
X179142858Y-142311961D02*
X179238096Y-142407200D01*
X179238096Y-142407200D02*
X179380953Y-142454819D01*
X179380953Y-142454819D02*
X179476191Y-142454819D01*
X179476191Y-142454819D02*
X179619048Y-142407200D01*
X179619048Y-142407200D02*
X179666667Y-142359580D01*
X179666667Y-142359580D02*
X179666667Y-142026247D01*
X179666667Y-142026247D02*
X179476191Y-142026247D01*
X180095239Y-142454819D02*
X180095239Y-141454819D01*
X180095239Y-141454819D02*
X180666667Y-142454819D01*
X180666667Y-142454819D02*
X180666667Y-141454819D01*
X181142858Y-142454819D02*
X181142858Y-141454819D01*
X181142858Y-141454819D02*
X181380953Y-141454819D01*
X181380953Y-141454819D02*
X181523810Y-141502438D01*
X181523810Y-141502438D02*
X181619048Y-141597676D01*
X181619048Y-141597676D02*
X181666667Y-141692914D01*
X181666667Y-141692914D02*
X181714286Y-141883390D01*
X181714286Y-141883390D02*
X181714286Y-142026247D01*
X181714286Y-142026247D02*
X181666667Y-142216723D01*
X181666667Y-142216723D02*
X181619048Y-142311961D01*
X181619048Y-142311961D02*
X181523810Y-142407200D01*
X181523810Y-142407200D02*
X181380953Y-142454819D01*
X181380953Y-142454819D02*
X181142858Y-142454819D01*
X182666667Y-142454819D02*
X182095239Y-142454819D01*
X182380953Y-142454819D02*
X182380953Y-141454819D01*
X182380953Y-141454819D02*
X182285715Y-141597676D01*
X182285715Y-141597676D02*
X182190477Y-141692914D01*
X182190477Y-141692914D02*
X182095239Y-141740533D01*
X119428572Y-127454819D02*
X119428572Y-126454819D01*
X119904762Y-127454819D02*
X119904762Y-126454819D01*
X119904762Y-126454819D02*
X120238095Y-127169104D01*
X120238095Y-127169104D02*
X120571428Y-126454819D01*
X120571428Y-126454819D02*
X120571428Y-127454819D01*
X121047619Y-126454819D02*
X121047619Y-127264342D01*
X121047619Y-127264342D02*
X121095238Y-127359580D01*
X121095238Y-127359580D02*
X121142857Y-127407200D01*
X121142857Y-127407200D02*
X121238095Y-127454819D01*
X121238095Y-127454819D02*
X121428571Y-127454819D01*
X121428571Y-127454819D02*
X121523809Y-127407200D01*
X121523809Y-127407200D02*
X121571428Y-127359580D01*
X121571428Y-127359580D02*
X121619047Y-127264342D01*
X121619047Y-127264342D02*
X121619047Y-126454819D01*
X122619047Y-127454819D02*
X122047619Y-127454819D01*
X122333333Y-127454819D02*
X122333333Y-126454819D01*
X122333333Y-126454819D02*
X122238095Y-126597676D01*
X122238095Y-126597676D02*
X122142857Y-126692914D01*
X122142857Y-126692914D02*
X122047619Y-126740533D01*
%TO.C,Servo1*%
D12*
X134540000Y-128620000D02*
X134540000Y-131380000D01*
X139730000Y-128620000D02*
X134540000Y-128620000D01*
X139730000Y-128620000D02*
X139730000Y-131380000D01*
X139730000Y-131380000D02*
X134540000Y-131380000D01*
X141000000Y-128620000D02*
X142380000Y-128620000D01*
X142380000Y-128620000D02*
X142380000Y-130000000D01*
%TO.C,Fuente_VCC1*%
X166620000Y-136120000D02*
X168000000Y-136120000D01*
X166620000Y-137500000D02*
X166620000Y-136120000D01*
X166620000Y-138770000D02*
X166620000Y-138880000D01*
X166620000Y-138770000D02*
X169380000Y-138770000D01*
X166620000Y-138880000D02*
X169380000Y-138880000D01*
X169380000Y-138770000D02*
X169380000Y-138880000D01*
%TO.C,A1*%
X111079802Y-95459359D02*
X111079802Y-107139359D01*
X111079802Y-107139359D02*
X117429802Y-107139359D01*
X115529802Y-66249359D02*
X115529802Y-75389359D01*
X115529802Y-75389359D02*
X117429802Y-75389359D01*
X117429802Y-63069359D02*
X117429802Y-66249359D01*
X117429802Y-66249359D02*
X115529802Y-66249359D01*
X117429802Y-75389359D02*
X117429802Y-95459359D01*
X117429802Y-95459359D02*
X111079802Y-95459359D01*
X117429802Y-107139359D02*
X117429802Y-116669359D01*
X117429802Y-116669359D02*
X182079802Y-116669359D01*
X182079802Y-116669359D02*
X183729802Y-115019359D01*
X183729802Y-63069359D02*
X117429802Y-63069359D01*
X183729802Y-65739359D02*
X183729802Y-63069359D01*
X183729802Y-103589359D02*
X186269802Y-101049359D01*
X183729802Y-115019359D02*
X183729802Y-103589359D01*
X186269802Y-68279359D02*
X183729802Y-65739359D01*
X186269802Y-101049359D02*
X186269802Y-68279359D01*
%TO.C,HC-SR041*%
X150810000Y-128620000D02*
X150810000Y-131380000D01*
X158540000Y-128620000D02*
X150810000Y-128620000D01*
X158540000Y-128620000D02*
X158540000Y-131380000D01*
X158540000Y-131380000D02*
X150810000Y-131380000D01*
X159810000Y-128620000D02*
X161190000Y-128620000D01*
X161190000Y-128620000D02*
X161190000Y-130000000D01*
%TO.C,Bornera1*%
X180847500Y-123630000D02*
X188887500Y-123630000D01*
X180847500Y-134370000D02*
X180847500Y-123630000D01*
X184467500Y-124438000D02*
X184467500Y-123630000D01*
X184467500Y-129370000D02*
X184467500Y-128062000D01*
X184467500Y-134370000D02*
X184467500Y-133130000D01*
X185467500Y-124438000D02*
X185467500Y-123630000D01*
X185467500Y-129370000D02*
X185467500Y-128062000D01*
X185467500Y-134370000D02*
X185467500Y-133130000D01*
X186767500Y-125707000D02*
X186767500Y-123630000D01*
X186767500Y-129370000D02*
X186767500Y-126793000D01*
X186767500Y-134370000D02*
X186767500Y-133130000D01*
X188887500Y-123630000D02*
X188887500Y-130950000D01*
X188887500Y-131550000D02*
X188887500Y-134370000D01*
X188887500Y-134370000D02*
X180847500Y-134370000D01*
X189497500Y-131690000D02*
X188887500Y-131250000D01*
X189497500Y-130810000D01*
X189497500Y-131690000D01*
G36*
X189497500Y-131690000D02*
G01*
X188887500Y-131250000D01*
X189497500Y-130810000D01*
X189497500Y-131690000D01*
G37*
%TO.C,Fuente_GND1*%
X174620000Y-136120000D02*
X176000000Y-136120000D01*
X174620000Y-137500000D02*
X174620000Y-136120000D01*
X174620000Y-138770000D02*
X174620000Y-138880000D01*
X174620000Y-138770000D02*
X177380000Y-138770000D01*
X174620000Y-138880000D02*
X177380000Y-138880000D01*
X177380000Y-138770000D02*
X177380000Y-138880000D01*
%TO.C,IMU1*%
X114540000Y-131380000D02*
X114540000Y-130000000D01*
X115920000Y-131380000D02*
X114540000Y-131380000D01*
X117190000Y-128620000D02*
X124920000Y-128620000D01*
X117190000Y-131380000D02*
X117190000Y-128620000D01*
X117190000Y-131380000D02*
X124920000Y-131380000D01*
X124920000Y-131380000D02*
X124920000Y-128620000D01*
%TD*%
M02*
