M48
; DRILL file KiCad 10.0.0 date 2026-04-27T08:56:58
; FORMAT={-:-/ absolute / metric / decimal}
; #@! TF.CreationDate,2026-04-27T08:56:58-03:00
; #@! TF.GenerationSoftware,Kicad,Pcbnew,10.0.0
; #@! TF.FileFunction,Plated,1,2,PTH
FMAT,2
METRIC
; #@! TA.AperFunction,Plated,PTH,ComponentDrill
T1C1.000
; #@! TA.AperFunction,Plated,PTH,ComponentDrill
T2C1.300
%
G90
G05
T1
X115.92Y-130.0
X118.46Y-130.0
X121.0Y-130.0
X123.54Y-130.0
X135.92Y-130.0
X136.36Y-113.999
X138.46Y-130.0
X138.9Y-113.999
X141.0Y-130.0
X141.44Y-113.999
X143.98Y-113.999
X145.5Y-65.739
X146.52Y-113.999
X148.04Y-65.739
X149.06Y-113.999
X150.58Y-65.739
X151.6Y-113.999
X152.19Y-130.0
X153.12Y-65.739
X154.14Y-113.999
X154.73Y-130.0
X155.66Y-65.739
X156.68Y-113.999
X157.27Y-130.0
X158.2Y-65.739
X159.22Y-113.999
X159.81Y-130.0
X160.74Y-65.739
X163.28Y-65.739
X163.28Y-113.999
X165.82Y-113.999
X168.0Y-137.5
X168.36Y-65.739
X168.36Y-113.999
X170.9Y-65.739
X170.9Y-113.999
X173.44Y-65.739
X173.44Y-113.999
X175.98Y-65.739
X175.98Y-113.999
X176.0Y-137.5
X178.52Y-65.739
X178.52Y-113.999
X181.06Y-65.739
X181.06Y-113.999
T2
X184.968Y-126.25
X184.968Y-131.25
M30
