%TF.GenerationSoftware,KiCad,Pcbnew,10.0.0*%
%TF.CreationDate,2026-04-27T08:56:54-03:00*%
%TF.ProjectId,Dise_o_v1,44697365-f16f-45f7-9631-2e6b69636164,rev?*%
%TF.SameCoordinates,Original*%
%TF.FileFunction,Copper,L2,Bot*%
%TF.FilePolarity,Positive*%
%FSLAX46Y46*%
G04 Gerber Fmt 4.6, Leading zero omitted, Abs format (unit mm)*
G04 Created by KiCad (PCBNEW 10.0.0) date 2026-04-27 08:56:54*
%MOMM*%
%LPD*%
G01*
G04 APERTURE LIST*
G04 Aperture macros list*
%AMRoundRect*
0 Rectangle with rounded corners*
0 $1 Rounding radius*
0 $2 $3 $4 $5 $6 $7 $8 $9 X,Y pos of 4 corners*
0 Add a 4 corners polygon primitive as box body*
4,1,4,$2,$3,$4,$5,$6,$7,$8,$9,$2,$3,0*
0 Add four circle primitives for the rounded corners*
1,1,$1+$1,$2,$3*
1,1,$1+$1,$4,$5*
1,1,$1+$1,$6,$7*
1,1,$1+$1,$8,$9*
0 Add four rect primitives between the rounded corners*
20,1,$1+$1,$2,$3,$4,$5,0*
20,1,$1+$1,$4,$5,$6,$7,0*
20,1,$1+$1,$6,$7,$8,$9,0*
20,1,$1+$1,$8,$9,$2,$3,0*%
G04 Aperture macros list end*
%TA.AperFunction,ComponentPad*%
%ADD10R,1.700000X1.700000*%
%TD*%
%TA.AperFunction,ComponentPad*%
%ADD11C,1.700000*%
%TD*%
%TA.AperFunction,ComponentPad*%
%ADD12R,1.600000X1.600000*%
%TD*%
%TA.AperFunction,ComponentPad*%
%ADD13O,1.600000X1.600000*%
%TD*%
%TA.AperFunction,ComponentPad*%
%ADD14RoundRect,0.250001X1.149999X-1.149999X1.149999X1.149999X-1.149999X1.149999X-1.149999X-1.149999X0*%
%TD*%
%TA.AperFunction,ComponentPad*%
%ADD15C,2.800000*%
%TD*%
%TA.AperFunction,Conductor*%
%ADD16C,2.540000*%
%TD*%
%TA.AperFunction,Conductor*%
%ADD17C,0.400000*%
%TD*%
G04 APERTURE END LIST*
D10*
%TO.P,Servo1,1,Pin_1_1*%
%TO.N,/Se\u00F1al*%
X141000000Y-130000000D03*
D11*
%TO.P,Servo1,2,Pin_2_2*%
%TO.N,Net-(Bornera1-Pin_1)*%
X138460000Y-130000000D03*
%TO.P,Servo1,3,Pin_3_3*%
%TO.N,GND*%
X135920000Y-130000000D03*
%TD*%
D10*
%TO.P,Fuente_VCC1,1,Pin_1_1*%
%TO.N,Net-(Bornera1-Pin_1)*%
X168000000Y-137500000D03*
%TD*%
D12*
%TO.P,A1,1,NC_1*%
%TO.N,unconnected-(A1-NC-Pad1)*%
X145499802Y-65739359D03*
D13*
%TO.P,A1,2,IOREF_2*%
%TO.N,unconnected-(A1-IOREF-Pad2)*%
X148039802Y-65739359D03*
%TO.P,A1,3,~{RESET}_3*%
%TO.N,unconnected-(A1-~{RESET}-Pad3)*%
X150579802Y-65739359D03*
%TO.P,A1,4,3V3_4*%
%TO.N,unconnected-(A1-3V3-Pad4)*%
X153119802Y-65739359D03*
%TO.P,A1,5,+5V_5*%
%TO.N,VCC*%
X155659802Y-65739359D03*
%TO.P,A1,6,GND_6*%
%TO.N,GND*%
X158199802Y-65739359D03*
%TO.P,A1,7,GND_7*%
X160739802Y-65739359D03*
%TO.P,A1,8,VIN_8*%
%TO.N,unconnected-(A1-VIN-Pad8)*%
X163279802Y-65739359D03*
%TO.P,A1,9,A0_9*%
%TO.N,unconnected-(A1-A0-Pad9)*%
X168359802Y-65739359D03*
%TO.P,A1,10,A1_10*%
%TO.N,unconnected-(A1-A1-Pad10)*%
X170899802Y-65739359D03*
%TO.P,A1,11,A2_11*%
%TO.N,unconnected-(A1-A2-Pad11)*%
X173439802Y-65739359D03*
%TO.P,A1,12,A3_12*%
%TO.N,unconnected-(A1-A3-Pad12)*%
X175979802Y-65739359D03*
%TO.P,A1,13,SDA/A4_13*%
%TO.N,unconnected-(A1-SDA{slash}A4-Pad13)*%
X178519802Y-65739359D03*
%TO.P,A1,14,SCL/A5_14*%
%TO.N,unconnected-(A1-SCL{slash}A5-Pad14)*%
X181059802Y-65739359D03*
%TO.P,A1,15,D0/RX_15*%
%TO.N,unconnected-(A1-D0{slash}RX-Pad15)*%
X181059802Y-113999359D03*
%TO.P,A1,16,D1/TX_16*%
%TO.N,unconnected-(A1-D1{slash}TX-Pad16)*%
X178519802Y-113999359D03*
%TO.P,A1,17,D2_17*%
%TO.N,unconnected-(A1-D2-Pad17)*%
X175979802Y-113999359D03*
%TO.P,A1,18,D3_18*%
%TO.N,unconnected-(A1-D3-Pad18)*%
X173439802Y-113999359D03*
%TO.P,A1,19,D4_19*%
%TO.N,unconnected-(A1-D4-Pad19)*%
X170899802Y-113999359D03*
%TO.P,A1,20,D5_20*%
%TO.N,unconnected-(A1-D5-Pad20)*%
X168359802Y-113999359D03*
%TO.P,A1,21,D6_21*%
%TO.N,/Trig*%
X165819802Y-113999359D03*
%TO.P,A1,22,D7_22*%
%TO.N,/Echo*%
X163279802Y-113999359D03*
%TO.P,A1,23,D8_23*%
%TO.N,unconnected-(A1-D8-Pad23)*%
X159219802Y-113999359D03*
%TO.P,A1,24,D9_24*%
%TO.N,/Se\u00F1al*%
X156679802Y-113999359D03*
%TO.P,A1,25,D10_25*%
%TO.N,unconnected-(A1-D10-Pad25)*%
X154139802Y-113999359D03*
%TO.P,A1,26,D11_26*%
%TO.N,unconnected-(A1-D11-Pad26)*%
X151599802Y-113999359D03*
%TO.P,A1,27,D12_27*%
%TO.N,unconnected-(A1-D12-Pad27)*%
X149059802Y-113999359D03*
%TO.P,A1,28,D13_28*%
%TO.N,unconnected-(A1-D13-Pad28)*%
X146519802Y-113999359D03*
%TO.P,A1,29,GND_29*%
%TO.N,GND*%
X143979802Y-113999359D03*
%TO.P,A1,30,AREF_30*%
%TO.N,unconnected-(A1-AREF-Pad30)*%
X141439802Y-113999359D03*
%TO.P,A1,31,SDA/A4_31*%
%TO.N,/SDA*%
X138899802Y-113999359D03*
%TO.P,A1,32,SCL/A5_32*%
%TO.N,/SCL*%
X136359802Y-113999359D03*
%TD*%
D10*
%TO.P,HC-SR041,1,Pin_1_1*%
%TO.N,VCC*%
X159810000Y-130000000D03*
D11*
%TO.P,HC-SR041,2,Pin_2_2*%
%TO.N,/Trig*%
X157270000Y-130000000D03*
%TO.P,HC-SR041,3,Pin_3_3*%
%TO.N,/Echo*%
X154730000Y-130000000D03*
%TO.P,HC-SR041,4,Pin_4_4*%
%TO.N,GND*%
X152190000Y-130000000D03*
%TD*%
D14*
%TO.P,Bornera1,1,Pin_1_1*%
%TO.N,Net-(Bornera1-Pin_1)*%
X184967500Y-131250000D03*
D15*
%TO.P,Bornera1,2,Pin_2_2*%
%TO.N,GND*%
X184967500Y-126250000D03*
%TD*%
D10*
%TO.P,Fuente_GND1,1,Pin_1_1*%
%TO.N,GND*%
X176000000Y-137500000D03*
%TD*%
%TO.P,IMU1,1,Pin_1_1*%
%TO.N,VCC*%
X115920000Y-130000000D03*
D11*
%TO.P,IMU1,2,Pin_2_2*%
%TO.N,GND*%
X118460000Y-130000000D03*
%TO.P,IMU1,3,Pin_3_3*%
%TO.N,/SCL*%
X121000000Y-130000000D03*
%TO.P,IMU1,4,Pin_4_4*%
%TO.N,/SDA*%
X123540000Y-130000000D03*
%TD*%
%TO.N,Net-(Bornera1-Pin_1)*%
D16*
X168000000Y-137500000D02*
X174250000Y-131250000D01*
X174250000Y-131250000D02*
X184967500Y-131250000D01*
X138460000Y-132309600D02*
X143650400Y-137500000D01*
X143650400Y-137500000D02*
X168000000Y-137500000D01*
X138460000Y-130000000D02*
X138460000Y-132309600D01*
%TO.N,VCC*%
X159810000Y-130000000D02*
X159810000Y-127190000D01*
X169000000Y-118000000D02*
X186000000Y-118000000D01*
X115920000Y-109080000D02*
X155725000Y-69275000D01*
X186000000Y-99550000D02*
X155725000Y-69275000D01*
X186000000Y-118000000D02*
X186000000Y-99550000D01*
X155725000Y-69275000D02*
X155725000Y-65815000D01*
X115920000Y-130000000D02*
X115920000Y-109080000D01*
X159810000Y-127190000D02*
X169000000Y-118000000D01*
%TO.N,/SCL*%
D17*
X136425000Y-114075000D02*
X121000000Y-129500000D01*
X121000000Y-129500000D02*
X121000000Y-130000000D01*
%TO.N,/SDA*%
X123540000Y-130000000D02*
X138965000Y-114575000D01*
X138965000Y-114575000D02*
X138965000Y-114075000D01*
%TO.N,/Trig*%
X165885000Y-114075000D02*
X157270000Y-122690000D01*
X157270000Y-122690000D02*
X157270000Y-130000000D01*
%TO.N,/Echo*%
X154730000Y-130000000D02*
X154730000Y-122690000D01*
X154730000Y-122690000D02*
X163345000Y-114075000D01*
%TO.N,/Se\u00F1al*%
X141000000Y-130000000D02*
X141000000Y-129820000D01*
X141000000Y-129820000D02*
X156745000Y-114075000D01*
%TD*%
%TA.AperFunction,Conductor*%
%TO.N,GND*%
G36*
X160273877Y-65546366D02*
G01*
X160239802Y-65673533D01*
X160239802Y-65805185D01*
X160273877Y-65932352D01*
X160306790Y-65989359D01*
X158632814Y-65989359D01*
X158665727Y-65932352D01*
X158699802Y-65805185D01*
X158699802Y-65673533D01*
X158665727Y-65546366D01*
X158632814Y-65489359D01*
X160306790Y-65489359D01*
X160273877Y-65546366D01*
G37*
%TD.AperFunction*%
%TA.AperFunction,Conductor*%
G36*
X189943039Y-60019685D02*
G01*
X189988794Y-60072489D01*
X190000000Y-60124000D01*
X190000000Y-139876000D01*
X189980315Y-139943039D01*
X189927511Y-139988794D01*
X189876000Y-140000000D01*
X110124000Y-140000000D01*
X110056961Y-139980315D01*
X110011206Y-139927511D01*
X110000000Y-139876000D01*
X110000000Y-108963947D01*
X114149499Y-108963947D01*
X114149499Y-108963955D01*
X114149499Y-109196045D01*
X114149499Y-109196051D01*
X114149500Y-109200459D01*
X114149500Y-130116052D01*
X114179794Y-130346148D01*
X114239862Y-130570328D01*
X114328677Y-130784745D01*
X114328685Y-130784762D01*
X114444720Y-130985743D01*
X114444721Y-130985745D01*
X114586009Y-131169875D01*
X114586015Y-131169882D01*
X114750117Y-131333984D01*
X114750124Y-131333990D01*
X114934254Y-131475278D01*
X114934256Y-131475279D01*
X115135237Y-131591314D01*
X115135240Y-131591315D01*
X115135248Y-131591320D01*
X115349670Y-131680137D01*
X115573851Y-131740206D01*
X115803955Y-131770500D01*
X115803962Y-131770500D01*
X116036038Y-131770500D01*
X116036045Y-131770500D01*
X116266149Y-131740206D01*
X116490330Y-131680137D01*
X116704752Y-131591320D01*
X116905748Y-131475276D01*
X117089877Y-131333989D01*
X117253989Y-131169877D01*
X117361240Y-131030105D01*
X117390076Y-130992525D01*
X117390076Y-130992524D01*
X117395276Y-130985748D01*
X117411596Y-130957482D01*
X117511314Y-130784762D01*
X117511320Y-130784752D01*
X117520862Y-130761717D01*
X117565480Y-130653999D01*
X117600137Y-130570330D01*
X117614971Y-130514966D01*
X117647064Y-130459380D01*
X117977037Y-130129408D01*
X117994075Y-130192993D01*
X118059901Y-130307007D01*
X118152993Y-130400099D01*
X118267007Y-130465925D01*
X118330590Y-130482962D01*
X117698282Y-131115269D01*
X117698282Y-131115270D01*
X117752449Y-131154624D01*
X117941782Y-131251095D01*
X118143870Y-131316757D01*
X118353754Y-131350000D01*
X118566246Y-131350000D01*
X118776127Y-131316757D01*
X118776130Y-131316757D01*
X118978217Y-131251095D01*
X119167554Y-131154622D01*
X119221716Y-131115270D01*
X119221717Y-131115270D01*
X118589408Y-130482962D01*
X118652993Y-130465925D01*
X118767007Y-130400099D01*
X118860099Y-130307007D01*
X118925925Y-130192993D01*
X118942962Y-130129408D01*
X119575270Y-130761717D01*
X119575270Y-130761716D01*
X119614622Y-130707555D01*
X119619232Y-130698507D01*
X119667205Y-130647709D01*
X119735025Y-130630912D01*
X119801161Y-130653447D01*
X119840204Y-130698504D01*
X119844949Y-130707817D01*
X119969890Y-130879786D01*
X120120213Y-131030109D01*
X120292179Y-131155048D01*
X120292181Y-131155049D01*
X120292184Y-131155051D01*
X120481588Y-131251557D01*
X120683757Y-131317246D01*
X120893713Y-131350500D01*
X120893714Y-131350500D01*
X121106286Y-131350500D01*
X121106287Y-131350500D01*
X121316243Y-131317246D01*
X121518412Y-131251557D01*
X121707816Y-131155051D01*
X121794138Y-131092335D01*
X121879786Y-131030109D01*
X121879788Y-131030106D01*
X121879792Y-131030104D01*
X122030104Y-130879792D01*
X122030106Y-130879788D01*
X122030109Y-130879786D01*
X122155048Y-130707820D01*
X122155050Y-130707817D01*
X122155051Y-130707816D01*
X122159514Y-130699054D01*
X122207488Y-130648259D01*
X122275308Y-130631463D01*
X122341444Y-130653999D01*
X122380486Y-130699056D01*
X122384951Y-130707820D01*
X122509890Y-130879786D01*
X122660213Y-131030109D01*
X122832179Y-131155048D01*
X122832181Y-131155049D01*
X122832184Y-131155051D01*
X123021588Y-131251557D01*
X123223757Y-131317246D01*
X123433713Y-131350500D01*
X123433714Y-131350500D01*
X123646286Y-131350500D01*
X123646287Y-131350500D01*
X123856243Y-131317246D01*
X124058412Y-131251557D01*
X124247816Y-131155051D01*
X124334138Y-131092335D01*
X124419786Y-131030109D01*
X124419788Y-131030106D01*
X124419792Y-131030104D01*
X124570104Y-130879792D01*
X124570106Y-130879788D01*
X124570109Y-130879786D01*
X124695048Y-130707820D01*
X124695050Y-130707817D01*
X124695051Y-130707816D01*
X124791557Y-130518412D01*
X124857246Y-130316243D01*
X124890500Y-130106287D01*
X124890500Y-129893713D01*
X124865678Y-129736998D01*
X124865630Y-129736682D01*
X124870225Y-129702324D01*
X124874670Y-129667933D01*
X124874863Y-129667650D01*
X124874893Y-129667429D01*
X124875516Y-129666694D01*
X124900504Y-129630151D01*
X139269921Y-115260734D01*
X139319281Y-115230487D01*
X139399021Y-115204579D01*
X139581412Y-115111646D01*
X139674392Y-115044091D01*
X139747015Y-114991330D01*
X139747017Y-114991327D01*
X139747021Y-114991325D01*
X139891768Y-114846578D01*
X139891770Y-114846574D01*
X139891773Y-114846572D01*
X140012086Y-114680973D01*
X140012088Y-114680970D01*
X140012089Y-114680969D01*
X140059318Y-114588276D01*
X140107291Y-114537482D01*
X140175112Y-114520687D01*
X140241247Y-114543224D01*
X140280285Y-114588276D01*
X140313908Y-114654263D01*
X140327517Y-114680973D01*
X140447830Y-114846572D01*
X140592588Y-114991330D01*
X140747551Y-115103915D01*
X140758192Y-115111646D01*
X140874409Y-115170862D01*
X140940578Y-115204577D01*
X140940580Y-115204577D01*
X140940583Y-115204579D01*
X141044939Y-115238486D01*
X141135267Y-115267836D01*
X141236359Y-115283847D01*
X141337450Y-115299859D01*
X141337451Y-115299859D01*
X141542153Y-115299859D01*
X141542154Y-115299859D01*
X141744336Y-115267836D01*
X141939021Y-115204579D01*
X142121412Y-115111646D01*
X142214392Y-115044091D01*
X142287015Y-114991330D01*
X142287017Y-114991327D01*
X142287021Y-114991325D01*
X142431768Y-114846578D01*
X142431770Y-114846574D01*
X142431773Y-114846572D01*
X142552086Y-114680973D01*
X142552088Y-114680970D01*
X142552089Y-114680969D01*
X142599597Y-114587728D01*
X142647572Y-114536933D01*
X142715393Y-114520138D01*
X142781527Y-114542675D01*
X142820567Y-114587729D01*
X142867942Y-114680708D01*
X142988219Y-114846253D01*
X142988219Y-114846254D01*
X143132906Y-114990941D01*
X143298452Y-115111218D01*
X143480770Y-115204113D01*
X143675380Y-115267347D01*
X143729802Y-115275966D01*
X143729802Y-114432371D01*
X143786809Y-114465284D01*
X143913976Y-114499359D01*
X144045628Y-114499359D01*
X144172795Y-114465284D01*
X144229802Y-114432371D01*
X144229802Y-115275965D01*
X144284223Y-115267347D01*
X144478833Y-115204113D01*
X144661151Y-115111218D01*
X144826696Y-114990941D01*
X144826697Y-114990941D01*
X144971384Y-114846254D01*
X144971384Y-114846253D01*
X145091663Y-114680706D01*
X145139036Y-114587730D01*
X145187010Y-114536934D01*
X145254830Y-114520138D01*
X145320966Y-114542675D01*
X145360005Y-114587728D01*
X145407515Y-114680970D01*
X145527830Y-114846572D01*
X145672588Y-114991330D01*
X145827551Y-115103915D01*
X145838192Y-115111646D01*
X145954409Y-115170862D01*
X146020578Y-115204577D01*
X146020580Y-115204577D01*
X146020583Y-115204579D01*
X146124939Y-115238486D01*
X146215267Y-115267836D01*
X146316359Y-115283847D01*
X146417450Y-115299859D01*
X146417451Y-115299859D01*
X146622153Y-115299859D01*
X146622154Y-115299859D01*
X146824336Y-115267836D01*
X147019021Y-115204579D01*
X147201412Y-115111646D01*
X147294392Y-115044091D01*
X147367015Y-114991330D01*
X147367017Y-114991327D01*
X147367021Y-114991325D01*
X147511768Y-114846578D01*
X147511770Y-114846574D01*
X147511773Y-114846572D01*
X147632086Y-114680973D01*
X147632088Y-114680970D01*
X147632089Y-114680969D01*
X147679318Y-114588276D01*
X147727291Y-114537482D01*
X147795112Y-114520687D01*
X147861247Y-114543224D01*
X147900285Y-114588276D01*
X147933908Y-114654263D01*
X147947517Y-114680973D01*
X148067830Y-114846572D01*
X148212588Y-114991330D01*
X148367551Y-115103915D01*
X148378192Y-115111646D01*
X148494409Y-115170862D01*
X148560578Y-115204577D01*
X148560580Y-115204577D01*
X148560583Y-115204579D01*
X148664939Y-115238486D01*
X148755267Y-115267836D01*
X148856359Y-115283847D01*
X148957450Y-115299859D01*
X148957451Y-115299859D01*
X149162153Y-115299859D01*
X149162154Y-115299859D01*
X149364336Y-115267836D01*
X149559021Y-115204579D01*
X149741412Y-115111646D01*
X149834392Y-115044091D01*
X149907015Y-114991330D01*
X149907017Y-114991327D01*
X149907021Y-114991325D01*
X150051768Y-114846578D01*
X150051770Y-114846574D01*
X150051773Y-114846572D01*
X150172086Y-114680973D01*
X150172088Y-114680970D01*
X150172089Y-114680969D01*
X150219318Y-114588276D01*
X150267291Y-114537482D01*
X150335112Y-114520687D01*
X150401247Y-114543224D01*
X150440285Y-114588276D01*
X150473908Y-114654263D01*
X150487517Y-114680973D01*
X150607830Y-114846572D01*
X150752588Y-114991330D01*
X150907551Y-115103915D01*
X150918192Y-115111646D01*
X151034409Y-115170862D01*
X151100578Y-115204577D01*
X151100580Y-115204577D01*
X151100583Y-115204579D01*
X151204939Y-115238486D01*
X151295267Y-115267836D01*
X151396359Y-115283847D01*
X151497450Y-115299859D01*
X151497451Y-115299859D01*
X151702153Y-115299859D01*
X151702154Y-115299859D01*
X151904336Y-115267836D01*
X152099021Y-115204579D01*
X152281412Y-115111646D01*
X152374392Y-115044091D01*
X152447015Y-114991330D01*
X152447017Y-114991327D01*
X152447021Y-114991325D01*
X152591768Y-114846578D01*
X152591770Y-114846574D01*
X152591773Y-114846572D01*
X152712086Y-114680973D01*
X152712088Y-114680970D01*
X152712089Y-114680969D01*
X152759318Y-114588276D01*
X152807291Y-114537482D01*
X152875112Y-114520687D01*
X152941247Y-114543224D01*
X152980285Y-114588276D01*
X153013908Y-114654263D01*
X153027517Y-114680973D01*
X153147830Y-114846572D01*
X153292588Y-114991330D01*
X153447551Y-115103915D01*
X153458192Y-115111646D01*
X153574409Y-115170862D01*
X153640578Y-115204577D01*
X153640580Y-115204577D01*
X153640583Y-115204579D01*
X153744939Y-115238486D01*
X153835267Y-115267836D01*
X153936359Y-115283847D01*
X154037450Y-115299859D01*
X154037451Y-115299859D01*
X154230121Y-115299859D01*
X154297160Y-115319544D01*
X154342915Y-115372348D01*
X154352859Y-115441506D01*
X154323834Y-115505062D01*
X154317802Y-115511540D01*
X141216160Y-128613181D01*
X141154837Y-128646666D01*
X141128479Y-128649500D01*
X140102129Y-128649500D01*
X140102123Y-128649501D01*
X140042516Y-128655908D01*
X139907671Y-128706202D01*
X139907669Y-128706203D01*
X139857803Y-128743533D01*
X139792338Y-128767949D01*
X139724066Y-128753097D01*
X139695814Y-128731948D01*
X139629877Y-128666011D01*
X139629876Y-128666010D01*
X139629874Y-128666008D01*
X139445745Y-128524721D01*
X139445743Y-128524720D01*
X139244762Y-128408685D01*
X139244754Y-128408681D01*
X139244752Y-128408680D01*
X139030330Y-128319863D01*
X139030331Y-128319863D01*
X139030328Y-128319862D01*
X138888203Y-128281780D01*
X138806149Y-128259794D01*
X138777386Y-128256007D01*
X138576052Y-128229500D01*
X138576045Y-128229500D01*
X138343955Y-128229500D01*
X138343947Y-128229500D01*
X138113851Y-128259794D01*
X137889671Y-128319862D01*
X137675254Y-128408677D01*
X137675237Y-128408685D01*
X137474256Y-128524720D01*
X137474254Y-128524721D01*
X137290124Y-128666009D01*
X137290117Y-128666015D01*
X137126015Y-128830117D01*
X137126009Y-128830124D01*
X136984721Y-129014254D01*
X136984720Y-129014256D01*
X136868685Y-129215237D01*
X136868677Y-129215254D01*
X136779861Y-129429673D01*
X136765027Y-129485033D01*
X136732934Y-129540618D01*
X136402962Y-129870590D01*
X136385925Y-129807007D01*
X136320099Y-129692993D01*
X136227007Y-129599901D01*
X136112993Y-129534075D01*
X136049409Y-129517037D01*
X136681716Y-128884728D01*
X136627550Y-128845375D01*
X136438217Y-128748904D01*
X136236129Y-128683242D01*
X136026246Y-128650000D01*
X135813754Y-128650000D01*
X135603872Y-128683242D01*
X135603869Y-128683242D01*
X135401782Y-128748904D01*
X135212439Y-128845380D01*
X135158282Y-128884727D01*
X135158282Y-128884728D01*
X135790591Y-129517037D01*
X135727007Y-129534075D01*
X135612993Y-129599901D01*
X135519901Y-129692993D01*
X135454075Y-129807007D01*
X135437037Y-129870591D01*
X134804728Y-129238282D01*
X134804727Y-129238282D01*
X134765380Y-129292439D01*
X134668904Y-129481782D01*
X134603242Y-129683869D01*
X134603242Y-129683872D01*
X134570000Y-129893753D01*
X134570000Y-130106246D01*
X134603242Y-130316127D01*
X134603242Y-130316130D01*
X134668904Y-130518217D01*
X134765375Y-130707550D01*
X134804728Y-130761716D01*
X135437037Y-130129408D01*
X135454075Y-130192993D01*
X135519901Y-130307007D01*
X135612993Y-130400099D01*
X135727007Y-130465925D01*
X135790590Y-130482962D01*
X135158282Y-131115269D01*
X135158282Y-131115270D01*
X135212449Y-131154624D01*
X135401782Y-131251095D01*
X135603870Y-131316757D01*
X135813754Y-131350000D01*
X136026246Y-131350000D01*
X136236127Y-131316757D01*
X136236130Y-131316757D01*
X136438217Y-131251095D01*
X136509205Y-131214925D01*
X136577874Y-131202029D01*
X136642614Y-131228305D01*
X136682872Y-131285411D01*
X136689500Y-131325410D01*
X136689500Y-132189682D01*
X136689499Y-132189716D01*
X136689499Y-132425652D01*
X136719792Y-132655745D01*
X136776841Y-132868653D01*
X136779860Y-132879921D01*
X136779866Y-132879939D01*
X136868676Y-133094345D01*
X136868685Y-133094362D01*
X136984720Y-133295343D01*
X136984721Y-133295345D01*
X137126009Y-133479475D01*
X137126015Y-133479482D01*
X137293219Y-133646686D01*
X137293249Y-133646714D01*
X142313966Y-138667431D01*
X142314003Y-138667470D01*
X142480517Y-138833984D01*
X142480524Y-138833990D01*
X142664654Y-138975278D01*
X142664656Y-138975279D01*
X142865637Y-139091314D01*
X142865640Y-139091315D01*
X142865648Y-139091320D01*
X143080070Y-139180137D01*
X143304251Y-139240207D01*
X143534355Y-139270501D01*
X143534362Y-139270501D01*
X143770285Y-139270501D01*
X143770317Y-139270500D01*
X167880083Y-139270500D01*
X167880115Y-139270501D01*
X167883955Y-139270501D01*
X168116038Y-139270501D01*
X168116045Y-139270501D01*
X168346149Y-139240207D01*
X168570330Y-139180137D01*
X168784752Y-139091320D01*
X168985748Y-138975276D01*
X169169877Y-138833989D01*
X169333989Y-138669877D01*
X169339353Y-138664513D01*
X169339368Y-138664495D01*
X171401709Y-136602155D01*
X174650000Y-136602155D01*
X174650000Y-137250000D01*
X175566988Y-137250000D01*
X175534075Y-137307007D01*
X175500000Y-137434174D01*
X175500000Y-137565826D01*
X175534075Y-137692993D01*
X175566988Y-137750000D01*
X174650000Y-137750000D01*
X174650000Y-138397844D01*
X174656401Y-138457372D01*
X174656403Y-138457379D01*
X174706645Y-138592086D01*
X174706649Y-138592093D01*
X174792809Y-138707187D01*
X174792812Y-138707190D01*
X174907906Y-138793350D01*
X174907913Y-138793354D01*
X175042620Y-138843596D01*
X175042627Y-138843598D01*
X175102155Y-138849999D01*
X175102172Y-138850000D01*
X175750000Y-138850000D01*
X175750000Y-137933012D01*
X175807007Y-137965925D01*
X175934174Y-138000000D01*
X176065826Y-138000000D01*
X176192993Y-137965925D01*
X176250000Y-137933012D01*
X176250000Y-138850000D01*
X176897828Y-138850000D01*
X176897844Y-138849999D01*
X176957372Y-138843598D01*
X176957379Y-138843596D01*
X177092086Y-138793354D01*
X177092093Y-138793350D01*
X177207187Y-138707190D01*
X177207190Y-138707187D01*
X177293350Y-138592093D01*
X177293354Y-138592086D01*
X177343596Y-138457379D01*
X177343598Y-138457372D01*
X177349999Y-138397844D01*
X177350000Y-138397827D01*
X177350000Y-137750000D01*
X176433012Y-137750000D01*
X176465925Y-137692993D01*
X176500000Y-137565826D01*
X176500000Y-137434174D01*
X176465925Y-137307007D01*
X176433012Y-137250000D01*
X177350000Y-137250000D01*
X177350000Y-136602172D01*
X177349999Y-136602155D01*
X177343598Y-136542627D01*
X177343596Y-136542620D01*
X177293354Y-136407913D01*
X177293350Y-136407906D01*
X177207190Y-136292812D01*
X177207187Y-136292809D01*
X177092093Y-136206649D01*
X177092086Y-136206645D01*
X176957379Y-136156403D01*
X176957372Y-136156401D01*
X176897844Y-136150000D01*
X176250000Y-136150000D01*
X176250000Y-137066988D01*
X176192993Y-137034075D01*
X176065826Y-137000000D01*
X175934174Y-137000000D01*
X175807007Y-137034075D01*
X175750000Y-137066988D01*
X175750000Y-136150000D01*
X175102155Y-136150000D01*
X175042627Y-136156401D01*
X175042620Y-136156403D01*
X174907913Y-136206645D01*
X174907906Y-136206649D01*
X174792812Y-136292809D01*
X174792809Y-136292812D01*
X174706649Y-136407906D01*
X174706645Y-136407913D01*
X174656403Y-136542620D01*
X174656401Y-136542627D01*
X174650000Y-136602155D01*
X171401709Y-136602155D01*
X174947046Y-133056819D01*
X175008369Y-133023334D01*
X175034727Y-133020500D01*
X183358732Y-133020500D01*
X183423828Y-133038961D01*
X183498166Y-133084814D01*
X183664703Y-133139999D01*
X183767492Y-133150500D01*
X183767497Y-133150500D01*
X186167503Y-133150500D01*
X186167508Y-133150500D01*
X186270297Y-133139999D01*
X186436834Y-133084814D01*
X186586155Y-132992711D01*
X186710211Y-132868655D01*
X186710211Y-132868654D01*
X186710213Y-132868653D01*
X186710213Y-132868651D01*
X186802312Y-132719337D01*
X186802313Y-132719335D01*
X186802314Y-132719334D01*
X186857499Y-132552797D01*
X186868000Y-132450008D01*
X186868000Y-130049992D01*
X186857499Y-129947203D01*
X186802314Y-129780666D01*
X186798648Y-129774723D01*
X186710213Y-129631348D01*
X186710210Y-129631344D01*
X186586155Y-129507289D01*
X186586151Y-129507286D01*
X186436837Y-129415187D01*
X186436835Y-129415186D01*
X186353565Y-129387593D01*
X186270297Y-129360001D01*
X186270295Y-129360000D01*
X186167515Y-129349500D01*
X186167508Y-129349500D01*
X183767492Y-129349500D01*
X183767484Y-129349500D01*
X183664704Y-129360000D01*
X183664703Y-129360001D01*
X183498167Y-129415185D01*
X183498161Y-129415188D01*
X183450675Y-129444479D01*
X183423828Y-129461038D01*
X183358732Y-129479500D01*
X174369917Y-129479500D01*
X174369885Y-129479499D01*
X174366045Y-129479499D01*
X174133955Y-129479499D01*
X174133947Y-129479499D01*
X173903855Y-129509792D01*
X173679665Y-129569864D01*
X173465254Y-129658676D01*
X173465237Y-129658684D01*
X173337821Y-129732247D01*
X173337821Y-129732248D01*
X173295346Y-129756771D01*
X173264253Y-129774723D01*
X173264243Y-129774730D01*
X173080125Y-129916008D01*
X172998068Y-129998065D01*
X172916011Y-130080123D01*
X172916007Y-130080127D01*
X167302954Y-135693181D01*
X167241631Y-135726666D01*
X167215273Y-135729500D01*
X144435127Y-135729500D01*
X144368088Y-135709815D01*
X144347446Y-135693181D01*
X140266819Y-131612554D01*
X140233334Y-131551231D01*
X140230500Y-131524873D01*
X140230500Y-131474499D01*
X140250185Y-131407460D01*
X140302989Y-131361705D01*
X140354500Y-131350499D01*
X141897871Y-131350499D01*
X141897872Y-131350499D01*
X141957483Y-131344091D01*
X142092331Y-131293796D01*
X142207546Y-131207546D01*
X142293796Y-131092331D01*
X142344091Y-130957483D01*
X142350500Y-130897873D01*
X142350499Y-129511517D01*
X142370184Y-129444479D01*
X142386813Y-129423842D01*
X156475240Y-115335415D01*
X156536561Y-115301932D01*
X156572658Y-115299481D01*
X156577444Y-115299858D01*
X156577450Y-115299859D01*
X156577456Y-115299859D01*
X156782153Y-115299859D01*
X156782154Y-115299859D01*
X156984336Y-115267836D01*
X157179021Y-115204579D01*
X157361412Y-115111646D01*
X157454392Y-115044091D01*
X157527015Y-114991330D01*
X157527017Y-114991327D01*
X157527021Y-114991325D01*
X157671768Y-114846578D01*
X157671770Y-114846574D01*
X157671773Y-114846572D01*
X157792086Y-114680973D01*
X157792088Y-114680970D01*
X157792089Y-114680969D01*
X157839318Y-114588276D01*
X157887291Y-114537482D01*
X157955112Y-114520687D01*
X158021247Y-114543224D01*
X158060285Y-114588276D01*
X158093908Y-114654263D01*
X158107517Y-114680973D01*
X158227830Y-114846572D01*
X158372588Y-114991330D01*
X158527551Y-115103915D01*
X158538192Y-115111646D01*
X158654409Y-115170862D01*
X158720578Y-115204577D01*
X158720580Y-115204577D01*
X158720583Y-115204579D01*
X158824939Y-115238486D01*
X158915267Y-115267836D01*
X159016359Y-115283847D01*
X159117450Y-115299859D01*
X159117451Y-115299859D01*
X159322153Y-115299859D01*
X159322154Y-115299859D01*
X159524336Y-115267836D01*
X159719021Y-115204579D01*
X159901412Y-115111646D01*
X159994392Y-115044091D01*
X160067015Y-114991330D01*
X160067017Y-114991327D01*
X160067021Y-114991325D01*
X160211768Y-114846578D01*
X160211770Y-114846574D01*
X160211773Y-114846572D01*
X160301601Y-114722932D01*
X160332089Y-114680969D01*
X160425022Y-114498578D01*
X160488279Y-114303893D01*
X160520302Y-114101711D01*
X160520302Y-113897007D01*
X160488279Y-113694825D01*
X160487475Y-113692352D01*
X160425020Y-113500135D01*
X160332221Y-113318009D01*
X160332089Y-113317749D01*
X160324358Y-113307108D01*
X160211773Y-113152145D01*
X160067015Y-113007387D01*
X159901415Y-112887074D01*
X159901414Y-112887073D01*
X159901412Y-112887072D01*
X159844455Y-112858050D01*
X159719025Y-112794140D01*
X159524336Y-112730881D01*
X159349797Y-112703237D01*
X159322154Y-112698859D01*
X159117450Y-112698859D01*
X159093131Y-112702710D01*
X158915267Y-112730881D01*
X158720578Y-112794140D01*
X158538188Y-112887074D01*
X158372588Y-113007387D01*
X158227830Y-113152145D01*
X158107517Y-113317745D01*
X158060287Y-113410439D01*
X158012312Y-113461235D01*
X157944491Y-113478030D01*
X157878356Y-113455493D01*
X157839317Y-113410439D01*
X157792221Y-113318009D01*
X157792089Y-113317749D01*
X157784358Y-113307108D01*
X157671773Y-113152145D01*
X157527015Y-113007387D01*
X157361415Y-112887074D01*
X157361414Y-112887073D01*
X157361412Y-112887072D01*
X157304455Y-112858050D01*
X157179025Y-112794140D01*
X156984336Y-112730881D01*
X156809797Y-112703237D01*
X156782154Y-112698859D01*
X156577450Y-112698859D01*
X156553131Y-112702710D01*
X156375267Y-112730881D01*
X156180578Y-112794140D01*
X155998188Y-112887074D01*
X155832588Y-113007387D01*
X155687830Y-113152145D01*
X155567517Y-113317745D01*
X155520287Y-113410439D01*
X155472312Y-113461235D01*
X155404491Y-113478030D01*
X155338356Y-113455493D01*
X155299317Y-113410439D01*
X155252221Y-113318009D01*
X155252089Y-113317749D01*
X155244358Y-113307108D01*
X155131773Y-113152145D01*
X154987015Y-113007387D01*
X154821415Y-112887074D01*
X154821414Y-112887073D01*
X154821412Y-112887072D01*
X154764455Y-112858050D01*
X154639025Y-112794140D01*
X154444336Y-112730881D01*
X154269797Y-112703237D01*
X154242154Y-112698859D01*
X154037450Y-112698859D01*
X154013131Y-112702710D01*
X153835267Y-112730881D01*
X153640578Y-112794140D01*
X153458188Y-112887074D01*
X153292588Y-113007387D01*
X153147830Y-113152145D01*
X153027517Y-113317745D01*
X152980287Y-113410439D01*
X152932312Y-113461235D01*
X152864491Y-113478030D01*
X152798356Y-113455493D01*
X152759317Y-113410439D01*
X152712221Y-113318009D01*
X152712089Y-113317749D01*
X152704358Y-113307108D01*
X152591773Y-113152145D01*
X152447015Y-113007387D01*
X152281415Y-112887074D01*
X152281414Y-112887073D01*
X152281412Y-112887072D01*
X152224455Y-112858050D01*
X152099025Y-112794140D01*
X151904336Y-112730881D01*
X151729797Y-112703237D01*
X151702154Y-112698859D01*
X151497450Y-112698859D01*
X151473131Y-112702710D01*
X151295267Y-112730881D01*
X151100578Y-112794140D01*
X150918188Y-112887074D01*
X150752588Y-113007387D01*
X150607830Y-113152145D01*
X150487517Y-113317745D01*
X150440287Y-113410439D01*
X150392312Y-113461235D01*
X150324491Y-113478030D01*
X150258356Y-113455493D01*
X150219317Y-113410439D01*
X150172221Y-113318009D01*
X150172089Y-113317749D01*
X150164358Y-113307108D01*
X150051773Y-113152145D01*
X149907015Y-113007387D01*
X149741415Y-112887074D01*
X149741414Y-112887073D01*
X149741412Y-112887072D01*
X149684455Y-112858050D01*
X149559025Y-112794140D01*
X149364336Y-112730881D01*
X149189797Y-112703237D01*
X149162154Y-112698859D01*
X148957450Y-112698859D01*
X148933131Y-112702710D01*
X148755267Y-112730881D01*
X148560578Y-112794140D01*
X148378188Y-112887074D01*
X148212588Y-113007387D01*
X148067830Y-113152145D01*
X147947517Y-113317745D01*
X147900287Y-113410439D01*
X147852312Y-113461235D01*
X147784491Y-113478030D01*
X147718356Y-113455493D01*
X147679317Y-113410439D01*
X147632221Y-113318009D01*
X147632089Y-113317749D01*
X147624358Y-113307108D01*
X147511773Y-113152145D01*
X147367015Y-113007387D01*
X147201415Y-112887074D01*
X147201414Y-112887073D01*
X147201412Y-112887072D01*
X147144455Y-112858050D01*
X147019025Y-112794140D01*
X146824336Y-112730881D01*
X146649797Y-112703237D01*
X146622154Y-112698859D01*
X146417450Y-112698859D01*
X146393131Y-112702710D01*
X146215267Y-112730881D01*
X146020578Y-112794140D01*
X145838188Y-112887074D01*
X145672588Y-113007387D01*
X145527830Y-113152145D01*
X145407515Y-113317747D01*
X145360005Y-113410989D01*
X145312030Y-113461785D01*
X145244209Y-113478579D01*
X145178074Y-113456041D01*
X145139036Y-113410987D01*
X145091663Y-113318011D01*
X144971384Y-113152464D01*
X144971384Y-113152463D01*
X144826697Y-113007776D01*
X144661151Y-112887499D01*
X144478831Y-112794603D01*
X144284215Y-112731368D01*
X144229802Y-112722749D01*
X144229802Y-113566347D01*
X144172795Y-113533434D01*
X144045628Y-113499359D01*
X143913976Y-113499359D01*
X143786809Y-113533434D01*
X143729802Y-113566347D01*
X143729802Y-112722749D01*
X143675388Y-112731368D01*
X143480772Y-112794603D01*
X143298452Y-112887499D01*
X143132907Y-113007776D01*
X143132906Y-113007776D01*
X142988219Y-113152463D01*
X142988219Y-113152464D01*
X142867942Y-113318009D01*
X142820567Y-113410988D01*
X142772592Y-113461784D01*
X142704771Y-113478579D01*
X142638636Y-113456041D01*
X142599597Y-113410988D01*
X142552221Y-113318009D01*
X142552089Y-113317749D01*
X142544358Y-113307108D01*
X142431773Y-113152145D01*
X142287015Y-113007387D01*
X142121415Y-112887074D01*
X142121414Y-112887073D01*
X142121412Y-112887072D01*
X142064455Y-112858050D01*
X141939025Y-112794140D01*
X141744336Y-112730881D01*
X141569797Y-112703237D01*
X141542154Y-112698859D01*
X141337450Y-112698859D01*
X141313131Y-112702710D01*
X141135267Y-112730881D01*
X140940578Y-112794140D01*
X140758188Y-112887074D01*
X140592588Y-113007387D01*
X140447830Y-113152145D01*
X140327517Y-113317745D01*
X140280287Y-113410439D01*
X140232312Y-113461235D01*
X140164491Y-113478030D01*
X140098356Y-113455493D01*
X140059317Y-113410439D01*
X140012221Y-113318009D01*
X140012089Y-113317749D01*
X140004358Y-113307108D01*
X139891773Y-113152145D01*
X139747015Y-113007387D01*
X139581415Y-112887074D01*
X139581414Y-112887073D01*
X139581412Y-112887072D01*
X139524455Y-112858050D01*
X139399025Y-112794140D01*
X139204336Y-112730881D01*
X139029797Y-112703237D01*
X139002154Y-112698859D01*
X138797450Y-112698859D01*
X138773131Y-112702710D01*
X138595267Y-112730881D01*
X138400578Y-112794140D01*
X138218188Y-112887074D01*
X138052588Y-113007387D01*
X137907830Y-113152145D01*
X137787517Y-113317745D01*
X137740287Y-113410439D01*
X137692312Y-113461235D01*
X137624491Y-113478030D01*
X137558356Y-113455493D01*
X137519317Y-113410439D01*
X137472221Y-113318009D01*
X137472089Y-113317749D01*
X137464358Y-113307108D01*
X137351773Y-113152145D01*
X137207015Y-113007387D01*
X137041415Y-112887074D01*
X137041414Y-112887073D01*
X137041412Y-112887072D01*
X136984455Y-112858050D01*
X136859025Y-112794140D01*
X136664336Y-112730881D01*
X136489797Y-112703237D01*
X136462154Y-112698859D01*
X136257450Y-112698859D01*
X136233131Y-112702710D01*
X136055267Y-112730881D01*
X135860578Y-112794140D01*
X135678188Y-112887074D01*
X135512588Y-113007387D01*
X135367830Y-113152145D01*
X135247517Y-113317745D01*
X135154583Y-113500135D01*
X135091324Y-113694824D01*
X135059302Y-113897007D01*
X135059302Y-114101710D01*
X135091325Y-114303895D01*
X135095832Y-114317768D01*
X135097824Y-114387609D01*
X135065580Y-114443761D01*
X120881957Y-128627384D01*
X120820634Y-128660869D01*
X120813675Y-128662176D01*
X120683759Y-128682753D01*
X120481585Y-128748444D01*
X120292179Y-128844951D01*
X120120213Y-128969890D01*
X119969890Y-129120213D01*
X119844949Y-129292182D01*
X119840202Y-129301499D01*
X119792227Y-129352293D01*
X119724405Y-129369087D01*
X119658271Y-129346548D01*
X119619234Y-129301495D01*
X119614626Y-129292452D01*
X119575270Y-129238282D01*
X119575269Y-129238282D01*
X118942962Y-129870590D01*
X118925925Y-129807007D01*
X118860099Y-129692993D01*
X118767007Y-129599901D01*
X118652993Y-129534075D01*
X118589408Y-129517037D01*
X119221716Y-128884728D01*
X119167550Y-128845375D01*
X118978217Y-128748904D01*
X118776129Y-128683242D01*
X118566246Y-128650000D01*
X118353754Y-128650000D01*
X118143872Y-128683242D01*
X118143869Y-128683242D01*
X117941779Y-128748905D01*
X117870794Y-128785074D01*
X117802125Y-128797970D01*
X117737385Y-128771693D01*
X117697128Y-128714587D01*
X117690500Y-128674589D01*
X117690500Y-109864727D01*
X117710185Y-109797688D01*
X117726819Y-109777046D01*
X155637319Y-71866546D01*
X155698642Y-71833061D01*
X155768334Y-71838045D01*
X155812681Y-71866546D01*
X184193181Y-100247046D01*
X184226666Y-100308369D01*
X184229500Y-100334727D01*
X184229500Y-116105500D01*
X184209815Y-116172539D01*
X184157011Y-116218294D01*
X184105500Y-116229500D01*
X169119917Y-116229500D01*
X169119885Y-116229499D01*
X169116045Y-116229499D01*
X168883956Y-116229499D01*
X168883948Y-116229499D01*
X168653852Y-116259793D01*
X168489739Y-116303767D01*
X168489738Y-116303766D01*
X168429670Y-116319862D01*
X168385261Y-116338256D01*
X168366867Y-116345876D01*
X168299261Y-116373879D01*
X168215254Y-116408676D01*
X168215237Y-116408684D01*
X168087821Y-116482247D01*
X168087821Y-116482248D01*
X168045346Y-116506771D01*
X168014253Y-116524723D01*
X168014243Y-116524730D01*
X167830125Y-116666008D01*
X167748068Y-116748065D01*
X167666011Y-116830123D01*
X167666007Y-116830127D01*
X158640127Y-125856007D01*
X158640123Y-125856011D01*
X158558065Y-125938068D01*
X158476008Y-126020125D01*
X158334721Y-126204254D01*
X158334720Y-126204256D01*
X158218685Y-126405237D01*
X158218679Y-126405249D01*
X158209061Y-126428470D01*
X158165219Y-126482873D01*
X158098925Y-126504937D01*
X158031226Y-126487657D01*
X157983616Y-126436520D01*
X157970500Y-126381016D01*
X157970500Y-123031518D01*
X157990185Y-122964479D01*
X158006814Y-122943842D01*
X165615240Y-115335415D01*
X165676561Y-115301932D01*
X165712658Y-115299481D01*
X165717444Y-115299858D01*
X165717450Y-115299859D01*
X165717456Y-115299859D01*
X165922153Y-115299859D01*
X165922154Y-115299859D01*
X166124336Y-115267836D01*
X166319021Y-115204579D01*
X166501412Y-115111646D01*
X166594392Y-115044091D01*
X166667015Y-114991330D01*
X166667017Y-114991327D01*
X166667021Y-114991325D01*
X166811768Y-114846578D01*
X166811770Y-114846574D01*
X166811773Y-114846572D01*
X166932086Y-114680973D01*
X166932088Y-114680970D01*
X166932089Y-114680969D01*
X166979318Y-114588276D01*
X167027291Y-114537482D01*
X167095112Y-114520687D01*
X167161247Y-114543224D01*
X167200285Y-114588276D01*
X167233908Y-114654263D01*
X167247517Y-114680973D01*
X167367830Y-114846572D01*
X167512588Y-114991330D01*
X167667551Y-115103915D01*
X167678192Y-115111646D01*
X167794409Y-115170862D01*
X167860578Y-115204577D01*
X167860580Y-115204577D01*
X167860583Y-115204579D01*
X167964939Y-115238486D01*
X168055267Y-115267836D01*
X168156359Y-115283847D01*
X168257450Y-115299859D01*
X168257451Y-115299859D01*
X168462153Y-115299859D01*
X168462154Y-115299859D01*
X168664336Y-115267836D01*
X168859021Y-115204579D01*
X169041412Y-115111646D01*
X169134392Y-115044091D01*
X169207015Y-114991330D01*
X169207017Y-114991327D01*
X169207021Y-114991325D01*
X169351768Y-114846578D01*
X169351770Y-114846574D01*
X169351773Y-114846572D01*
X169472086Y-114680973D01*
X169472088Y-114680970D01*
X169472089Y-114680969D01*
X169519318Y-114588276D01*
X169567291Y-114537482D01*
X169635112Y-114520687D01*
X169701247Y-114543224D01*
X169740285Y-114588276D01*
X169773908Y-114654263D01*
X169787517Y-114680973D01*
X169907830Y-114846572D01*
X170052588Y-114991330D01*
X170207551Y-115103915D01*
X170218192Y-115111646D01*
X170334409Y-115170862D01*
X170400578Y-115204577D01*
X170400580Y-115204577D01*
X170400583Y-115204579D01*
X170504939Y-115238486D01*
X170595267Y-115267836D01*
X170696359Y-115283847D01*
X170797450Y-115299859D01*
X170797451Y-115299859D01*
X171002153Y-115299859D01*
X171002154Y-115299859D01*
X171204336Y-115267836D01*
X171399021Y-115204579D01*
X171581412Y-115111646D01*
X171674392Y-115044091D01*
X171747015Y-114991330D01*
X171747017Y-114991327D01*
X171747021Y-114991325D01*
X171891768Y-114846578D01*
X171891770Y-114846574D01*
X171891773Y-114846572D01*
X172012086Y-114680973D01*
X172012088Y-114680970D01*
X172012089Y-114680969D01*
X172059318Y-114588276D01*
X172107291Y-114537482D01*
X172175112Y-114520687D01*
X172241247Y-114543224D01*
X172280285Y-114588276D01*
X172313908Y-114654263D01*
X172327517Y-114680973D01*
X172447830Y-114846572D01*
X172592588Y-114991330D01*
X172747551Y-115103915D01*
X172758192Y-115111646D01*
X172874409Y-115170862D01*
X172940578Y-115204577D01*
X172940580Y-115204577D01*
X172940583Y-115204579D01*
X173044939Y-115238486D01*
X173135267Y-115267836D01*
X173236359Y-115283847D01*
X173337450Y-115299859D01*
X173337451Y-115299859D01*
X173542153Y-115299859D01*
X173542154Y-115299859D01*
X173744336Y-115267836D01*
X173939021Y-115204579D01*
X174121412Y-115111646D01*
X174214392Y-115044091D01*
X174287015Y-114991330D01*
X174287017Y-114991327D01*
X174287021Y-114991325D01*
X174431768Y-114846578D01*
X174431770Y-114846574D01*
X174431773Y-114846572D01*
X174552086Y-114680973D01*
X174552088Y-114680970D01*
X174552089Y-114680969D01*
X174599318Y-114588276D01*
X174647291Y-114537482D01*
X174715112Y-114520687D01*
X174781247Y-114543224D01*
X174820285Y-114588276D01*
X174853908Y-114654263D01*
X174867517Y-114680973D01*
X174987830Y-114846572D01*
X175132588Y-114991330D01*
X175287551Y-115103915D01*
X175298192Y-115111646D01*
X175414409Y-115170862D01*
X175480578Y-115204577D01*
X175480580Y-115204577D01*
X175480583Y-115204579D01*
X175584939Y-115238486D01*
X175675267Y-115267836D01*
X175776359Y-115283847D01*
X175877450Y-115299859D01*
X175877451Y-115299859D01*
X176082153Y-115299859D01*
X176082154Y-115299859D01*
X176284336Y-115267836D01*
X176479021Y-115204579D01*
X176661412Y-115111646D01*
X176754392Y-115044091D01*
X176827015Y-114991330D01*
X176827017Y-114991327D01*
X176827021Y-114991325D01*
X176971768Y-114846578D01*
X176971770Y-114846574D01*
X176971773Y-114846572D01*
X177092086Y-114680973D01*
X177092088Y-114680970D01*
X177092089Y-114680969D01*
X177139318Y-114588276D01*
X177187291Y-114537482D01*
X177255112Y-114520687D01*
X177321247Y-114543224D01*
X177360285Y-114588276D01*
X177393908Y-114654263D01*
X177407517Y-114680973D01*
X177527830Y-114846572D01*
X177672588Y-114991330D01*
X177827551Y-115103915D01*
X177838192Y-115111646D01*
X177954409Y-115170862D01*
X178020578Y-115204577D01*
X178020580Y-115204577D01*
X178020583Y-115204579D01*
X178124939Y-115238486D01*
X178215267Y-115267836D01*
X178316359Y-115283847D01*
X178417450Y-115299859D01*
X178417451Y-115299859D01*
X178622153Y-115299859D01*
X178622154Y-115299859D01*
X178824336Y-115267836D01*
X179019021Y-115204579D01*
X179201412Y-115111646D01*
X179294392Y-115044091D01*
X179367015Y-114991330D01*
X179367017Y-114991327D01*
X179367021Y-114991325D01*
X179511768Y-114846578D01*
X179511770Y-114846574D01*
X179511773Y-114846572D01*
X179632086Y-114680973D01*
X179632088Y-114680970D01*
X179632089Y-114680969D01*
X179679318Y-114588276D01*
X179727291Y-114537482D01*
X179795112Y-114520687D01*
X179861247Y-114543224D01*
X179900285Y-114588276D01*
X179933908Y-114654263D01*
X179947517Y-114680973D01*
X180067830Y-114846572D01*
X180212588Y-114991330D01*
X180367551Y-115103915D01*
X180378192Y-115111646D01*
X180494409Y-115170862D01*
X180560578Y-115204577D01*
X180560580Y-115204577D01*
X180560583Y-115204579D01*
X180664939Y-115238486D01*
X180755267Y-115267836D01*
X180856359Y-115283847D01*
X180957450Y-115299859D01*
X180957451Y-115299859D01*
X181162153Y-115299859D01*
X181162154Y-115299859D01*
X181364336Y-115267836D01*
X181559021Y-115204579D01*
X181741412Y-115111646D01*
X181834392Y-115044091D01*
X181907015Y-114991330D01*
X181907017Y-114991327D01*
X181907021Y-114991325D01*
X182051768Y-114846578D01*
X182051770Y-114846574D01*
X182051773Y-114846572D01*
X182141601Y-114722932D01*
X182172089Y-114680969D01*
X182265022Y-114498578D01*
X182328279Y-114303893D01*
X182360302Y-114101711D01*
X182360302Y-113897007D01*
X182328279Y-113694825D01*
X182327475Y-113692352D01*
X182265020Y-113500135D01*
X182172221Y-113318009D01*
X182172089Y-113317749D01*
X182164358Y-113307108D01*
X182051773Y-113152145D01*
X181907015Y-113007387D01*
X181741415Y-112887074D01*
X181741414Y-112887073D01*
X181741412Y-112887072D01*
X181684455Y-112858050D01*
X181559025Y-112794140D01*
X181364336Y-112730881D01*
X181189797Y-112703237D01*
X181162154Y-112698859D01*
X180957450Y-112698859D01*
X180933131Y-112702710D01*
X180755267Y-112730881D01*
X180560578Y-112794140D01*
X180378188Y-112887074D01*
X180212588Y-113007387D01*
X180067830Y-113152145D01*
X179947517Y-113317745D01*
X179900287Y-113410439D01*
X179852312Y-113461235D01*
X179784491Y-113478030D01*
X179718356Y-113455493D01*
X179679317Y-113410439D01*
X179632221Y-113318009D01*
X179632089Y-113317749D01*
X179624358Y-113307108D01*
X179511773Y-113152145D01*
X179367015Y-113007387D01*
X179201415Y-112887074D01*
X179201414Y-112887073D01*
X179201412Y-112887072D01*
X179144455Y-112858050D01*
X179019025Y-112794140D01*
X178824336Y-112730881D01*
X178649797Y-112703237D01*
X178622154Y-112698859D01*
X178417450Y-112698859D01*
X178393131Y-112702710D01*
X178215267Y-112730881D01*
X178020578Y-112794140D01*
X177838188Y-112887074D01*
X177672588Y-113007387D01*
X177527830Y-113152145D01*
X177407517Y-113317745D01*
X177360287Y-113410439D01*
X177312312Y-113461235D01*
X177244491Y-113478030D01*
X177178356Y-113455493D01*
X177139317Y-113410439D01*
X177092221Y-113318009D01*
X177092089Y-113317749D01*
X177084358Y-113307108D01*
X176971773Y-113152145D01*
X176827015Y-113007387D01*
X176661415Y-112887074D01*
X176661414Y-112887073D01*
X176661412Y-112887072D01*
X176604455Y-112858050D01*
X176479025Y-112794140D01*
X176284336Y-112730881D01*
X176109797Y-112703237D01*
X176082154Y-112698859D01*
X175877450Y-112698859D01*
X175853131Y-112702710D01*
X175675267Y-112730881D01*
X175480578Y-112794140D01*
X175298188Y-112887074D01*
X175132588Y-113007387D01*
X174987830Y-113152145D01*
X174867517Y-113317745D01*
X174820287Y-113410439D01*
X174772312Y-113461235D01*
X174704491Y-113478030D01*
X174638356Y-113455493D01*
X174599317Y-113410439D01*
X174552221Y-113318009D01*
X174552089Y-113317749D01*
X174544358Y-113307108D01*
X174431773Y-113152145D01*
X174287015Y-113007387D01*
X174121415Y-112887074D01*
X174121414Y-112887073D01*
X174121412Y-112887072D01*
X174064455Y-112858050D01*
X173939025Y-112794140D01*
X173744336Y-112730881D01*
X173569797Y-112703237D01*
X173542154Y-112698859D01*
X173337450Y-112698859D01*
X173313131Y-112702710D01*
X173135267Y-112730881D01*
X172940578Y-112794140D01*
X172758188Y-112887074D01*
X172592588Y-113007387D01*
X172447830Y-113152145D01*
X172327517Y-113317745D01*
X172280287Y-113410439D01*
X172232312Y-113461235D01*
X172164491Y-113478030D01*
X172098356Y-113455493D01*
X172059317Y-113410439D01*
X172012221Y-113318009D01*
X172012089Y-113317749D01*
X172004358Y-113307108D01*
X171891773Y-113152145D01*
X171747015Y-113007387D01*
X171581415Y-112887074D01*
X171581414Y-112887073D01*
X171581412Y-112887072D01*
X171524455Y-112858050D01*
X171399025Y-112794140D01*
X171204336Y-112730881D01*
X171029797Y-112703237D01*
X171002154Y-112698859D01*
X170797450Y-112698859D01*
X170773131Y-112702710D01*
X170595267Y-112730881D01*
X170400578Y-112794140D01*
X170218188Y-112887074D01*
X170052588Y-113007387D01*
X169907830Y-113152145D01*
X169787517Y-113317745D01*
X169740287Y-113410439D01*
X169692312Y-113461235D01*
X169624491Y-113478030D01*
X169558356Y-113455493D01*
X169519317Y-113410439D01*
X169472221Y-113318009D01*
X169472089Y-113317749D01*
X169464358Y-113307108D01*
X169351773Y-113152145D01*
X169207015Y-113007387D01*
X169041415Y-112887074D01*
X169041414Y-112887073D01*
X169041412Y-112887072D01*
X168984455Y-112858050D01*
X168859025Y-112794140D01*
X168664336Y-112730881D01*
X168489797Y-112703237D01*
X168462154Y-112698859D01*
X168257450Y-112698859D01*
X168233131Y-112702710D01*
X168055267Y-112730881D01*
X167860578Y-112794140D01*
X167678188Y-112887074D01*
X167512588Y-113007387D01*
X167367830Y-113152145D01*
X167247517Y-113317745D01*
X167200287Y-113410439D01*
X167152312Y-113461235D01*
X167084491Y-113478030D01*
X167018356Y-113455493D01*
X166979317Y-113410439D01*
X166932221Y-113318009D01*
X166932089Y-113317749D01*
X166924358Y-113307108D01*
X166811773Y-113152145D01*
X166667015Y-113007387D01*
X166501415Y-112887074D01*
X166501414Y-112887073D01*
X166501412Y-112887072D01*
X166444455Y-112858050D01*
X166319025Y-112794140D01*
X166124336Y-112730881D01*
X165949797Y-112703237D01*
X165922154Y-112698859D01*
X165717450Y-112698859D01*
X165693131Y-112702710D01*
X165515267Y-112730881D01*
X165320578Y-112794140D01*
X165138188Y-112887074D01*
X164972588Y-113007387D01*
X164827830Y-113152145D01*
X164707517Y-113317745D01*
X164660287Y-113410439D01*
X164612312Y-113461235D01*
X164544491Y-113478030D01*
X164478356Y-113455493D01*
X164439317Y-113410439D01*
X164392221Y-113318009D01*
X164392089Y-113317749D01*
X164384358Y-113307108D01*
X164271773Y-113152145D01*
X164127015Y-113007387D01*
X163961415Y-112887074D01*
X163961414Y-112887073D01*
X163961412Y-112887072D01*
X163904455Y-112858050D01*
X163779025Y-112794140D01*
X163584336Y-112730881D01*
X163409797Y-112703237D01*
X163382154Y-112698859D01*
X163177450Y-112698859D01*
X163153131Y-112702710D01*
X162975267Y-112730881D01*
X162780578Y-112794140D01*
X162598188Y-112887074D01*
X162432588Y-113007387D01*
X162287830Y-113152145D01*
X162167517Y-113317745D01*
X162074583Y-113500135D01*
X162011324Y-113694824D01*
X161979302Y-113897007D01*
X161979302Y-114101710D01*
X162011325Y-114303895D01*
X162015832Y-114317768D01*
X162017824Y-114387609D01*
X161985580Y-114443761D01*
X154185887Y-122243454D01*
X154109222Y-122358192D01*
X154056421Y-122485667D01*
X154056418Y-122485677D01*
X154029500Y-122621004D01*
X154029500Y-128776452D01*
X154009815Y-128843491D01*
X153978385Y-128876770D01*
X153850213Y-128969890D01*
X153699890Y-129120213D01*
X153574949Y-129292182D01*
X153570202Y-129301499D01*
X153522227Y-129352293D01*
X153454405Y-129369087D01*
X153388271Y-129346548D01*
X153349234Y-129301495D01*
X153344626Y-129292452D01*
X153305270Y-129238282D01*
X153305269Y-129238282D01*
X152672962Y-129870590D01*
X152655925Y-129807007D01*
X152590099Y-129692993D01*
X152497007Y-129599901D01*
X152382993Y-129534075D01*
X152319409Y-129517037D01*
X152951716Y-128884728D01*
X152897550Y-128845375D01*
X152708217Y-128748904D01*
X152506129Y-128683242D01*
X152296246Y-128650000D01*
X152083754Y-128650000D01*
X151873872Y-128683242D01*
X151873869Y-128683242D01*
X151671782Y-128748904D01*
X151482439Y-128845380D01*
X151428282Y-128884727D01*
X151428282Y-128884728D01*
X152060591Y-129517037D01*
X151997007Y-129534075D01*
X151882993Y-129599901D01*
X151789901Y-129692993D01*
X151724075Y-129807007D01*
X151707037Y-129870590D01*
X151074728Y-129238282D01*
X151074727Y-129238282D01*
X151035380Y-129292439D01*
X150938904Y-129481782D01*
X150873242Y-129683869D01*
X150873242Y-129683872D01*
X150840000Y-129893753D01*
X150840000Y-130106246D01*
X150873242Y-130316127D01*
X150873242Y-130316130D01*
X150938904Y-130518217D01*
X151035375Y-130707550D01*
X151074728Y-130761716D01*
X151707037Y-130129408D01*
X151724075Y-130192993D01*
X151789901Y-130307007D01*
X151882993Y-130400099D01*
X151997007Y-130465925D01*
X152060590Y-130482962D01*
X151428282Y-131115269D01*
X151428282Y-131115270D01*
X151482449Y-131154624D01*
X151671782Y-131251095D01*
X151873870Y-131316757D01*
X152083754Y-131350000D01*
X152296246Y-131350000D01*
X152506127Y-131316757D01*
X152506130Y-131316757D01*
X152708217Y-131251095D01*
X152897554Y-131154622D01*
X152951716Y-131115270D01*
X152951717Y-131115270D01*
X152319408Y-130482962D01*
X152382993Y-130465925D01*
X152497007Y-130400099D01*
X152590099Y-130307007D01*
X152655925Y-130192993D01*
X152672962Y-130129408D01*
X153305270Y-130761717D01*
X153305270Y-130761716D01*
X153344622Y-130707555D01*
X153349232Y-130698507D01*
X153397205Y-130647709D01*
X153465025Y-130630912D01*
X153531161Y-130653447D01*
X153570204Y-130698504D01*
X153574949Y-130707817D01*
X153699890Y-130879786D01*
X153850213Y-131030109D01*
X154022179Y-131155048D01*
X154022181Y-131155049D01*
X154022184Y-131155051D01*
X154211588Y-131251557D01*
X154413757Y-131317246D01*
X154623713Y-131350500D01*
X154623714Y-131350500D01*
X154836286Y-131350500D01*
X154836287Y-131350500D01*
X155046243Y-131317246D01*
X155248412Y-131251557D01*
X155437816Y-131155051D01*
X155524138Y-131092335D01*
X155609786Y-131030109D01*
X155609788Y-131030106D01*
X155609792Y-131030104D01*
X155760104Y-130879792D01*
X155760106Y-130879788D01*
X155760109Y-130879786D01*
X155885048Y-130707820D01*
X155885050Y-130707817D01*
X155885051Y-130707816D01*
X155889514Y-130699054D01*
X155937488Y-130648259D01*
X156005308Y-130631463D01*
X156071444Y-130653999D01*
X156110486Y-130699056D01*
X156114951Y-130707820D01*
X156239890Y-130879786D01*
X156390213Y-131030109D01*
X156562179Y-131155048D01*
X156562181Y-131155049D01*
X156562184Y-131155051D01*
X156751588Y-131251557D01*
X156953757Y-131317246D01*
X157163713Y-131350500D01*
X157163714Y-131350500D01*
X157376286Y-131350500D01*
X157376287Y-131350500D01*
X157586243Y-131317246D01*
X157788412Y-131251557D01*
X157977816Y-131155051D01*
X158149792Y-131030104D01*
X158173710Y-131006185D01*
X158235029Y-130972702D01*
X158304720Y-130977685D01*
X158359765Y-131018382D01*
X158476009Y-131169875D01*
X158476015Y-131169882D01*
X158640117Y-131333984D01*
X158640124Y-131333990D01*
X158824254Y-131475278D01*
X158824256Y-131475279D01*
X159025237Y-131591314D01*
X159025240Y-131591315D01*
X159025248Y-131591320D01*
X159239670Y-131680137D01*
X159463851Y-131740206D01*
X159693955Y-131770500D01*
X159693962Y-131770500D01*
X159926038Y-131770500D01*
X159926045Y-131770500D01*
X160156149Y-131740206D01*
X160380330Y-131680137D01*
X160594752Y-131591320D01*
X160795748Y-131475276D01*
X160979877Y-131333989D01*
X161143989Y-131169877D01*
X161285276Y-130985748D01*
X161401320Y-130784752D01*
X161490137Y-130570330D01*
X161550206Y-130346149D01*
X161580500Y-130116045D01*
X161580500Y-127974727D01*
X161600185Y-127907688D01*
X161616819Y-127887046D01*
X163378399Y-126125466D01*
X183067500Y-126125466D01*
X183067500Y-126374533D01*
X183100008Y-126621463D01*
X183164473Y-126862049D01*
X183259783Y-127092148D01*
X183259788Y-127092159D01*
X183384313Y-127307841D01*
X183384319Y-127307849D01*
X183458900Y-127405045D01*
X184366458Y-126497487D01*
X184391478Y-126557890D01*
X184462612Y-126664351D01*
X184553149Y-126754888D01*
X184659610Y-126826022D01*
X184720011Y-126851041D01*
X183812453Y-127758598D01*
X183909650Y-127833180D01*
X183909658Y-127833186D01*
X184125340Y-127957711D01*
X184125351Y-127957716D01*
X184355450Y-128053026D01*
X184596036Y-128117491D01*
X184842966Y-128150000D01*
X185092034Y-128150000D01*
X185338963Y-128117491D01*
X185579549Y-128053026D01*
X185809648Y-127957716D01*
X185809659Y-127957711D01*
X186025355Y-127833178D01*
X186122545Y-127758600D01*
X186122545Y-127758597D01*
X185214988Y-126851041D01*
X185275390Y-126826022D01*
X185381851Y-126754888D01*
X185472388Y-126664351D01*
X185543522Y-126557890D01*
X185568541Y-126497489D01*
X186476097Y-127405045D01*
X186476100Y-127405045D01*
X186550678Y-127307855D01*
X186675211Y-127092159D01*
X186675216Y-127092148D01*
X186770526Y-126862049D01*
X186834991Y-126621463D01*
X186867500Y-126374533D01*
X186867500Y-126125466D01*
X186834991Y-125878536D01*
X186770526Y-125637950D01*
X186675216Y-125407851D01*
X186675211Y-125407840D01*
X186550686Y-125192158D01*
X186550680Y-125192150D01*
X186476098Y-125094953D01*
X185568541Y-126002510D01*
X185543522Y-125942110D01*
X185472388Y-125835649D01*
X185381851Y-125745112D01*
X185275390Y-125673978D01*
X185214987Y-125648957D01*
X186122545Y-124741400D01*
X186025349Y-124666819D01*
X186025341Y-124666813D01*
X185809659Y-124542288D01*
X185809648Y-124542283D01*
X185579549Y-124446973D01*
X185338963Y-124382508D01*
X185092034Y-124350000D01*
X184842966Y-124350000D01*
X184596036Y-124382508D01*
X184355450Y-124446973D01*
X184125351Y-124542283D01*
X184125347Y-124542285D01*
X183909643Y-124666823D01*
X183812453Y-124741399D01*
X183812453Y-124741400D01*
X184720011Y-125648958D01*
X184659610Y-125673978D01*
X184553149Y-125745112D01*
X184462612Y-125835649D01*
X184391478Y-125942110D01*
X184366458Y-126002511D01*
X183458900Y-125094953D01*
X183458899Y-125094953D01*
X183384323Y-125192143D01*
X183259785Y-125407847D01*
X183259783Y-125407851D01*
X183164473Y-125637950D01*
X183100008Y-125878536D01*
X183067500Y-126125466D01*
X163378399Y-126125466D01*
X169697046Y-119806819D01*
X169758369Y-119773334D01*
X169784727Y-119770500D01*
X186116038Y-119770500D01*
X186116045Y-119770500D01*
X186346149Y-119740206D01*
X186570330Y-119680137D01*
X186784752Y-119591320D01*
X186985748Y-119475276D01*
X187169877Y-119333989D01*
X187333989Y-119169877D01*
X187475276Y-118985748D01*
X187591320Y-118784752D01*
X187680137Y-118570330D01*
X187740206Y-118346149D01*
X187770500Y-118116045D01*
X187770500Y-99670460D01*
X187770501Y-99670431D01*
X187770501Y-99433962D01*
X187770500Y-99433948D01*
X187740207Y-99203855D01*
X187740207Y-99203852D01*
X187680137Y-98979671D01*
X187591321Y-98765248D01*
X187517751Y-98637821D01*
X187475276Y-98564252D01*
X187333989Y-98380123D01*
X187333984Y-98380117D01*
X187167470Y-98213603D01*
X187167431Y-98213566D01*
X157531819Y-68577954D01*
X157498334Y-68516631D01*
X157495500Y-68490273D01*
X157495500Y-67041873D01*
X157515185Y-66974834D01*
X157567989Y-66929079D01*
X157637147Y-66919135D01*
X157675795Y-66931389D01*
X157700765Y-66944112D01*
X157895380Y-67007347D01*
X157949802Y-67015966D01*
X157949802Y-66172371D01*
X158006809Y-66205284D01*
X158133976Y-66239359D01*
X158265628Y-66239359D01*
X158392795Y-66205284D01*
X158449802Y-66172371D01*
X158449802Y-67015965D01*
X158504223Y-67007347D01*
X158698833Y-66944113D01*
X158881151Y-66851218D01*
X159046696Y-66730941D01*
X159046697Y-66730941D01*
X159191384Y-66586254D01*
X159191384Y-66586253D01*
X159311661Y-66420708D01*
X159359317Y-66327179D01*
X159407291Y-66276383D01*
X159475112Y-66259588D01*
X159541247Y-66282125D01*
X159580287Y-66327179D01*
X159627942Y-66420708D01*
X159748219Y-66586253D01*
X159748219Y-66586254D01*
X159892906Y-66730941D01*
X160058452Y-66851218D01*
X160240770Y-66944113D01*
X160435380Y-67007347D01*
X160489802Y-67015966D01*
X160489802Y-66172371D01*
X160546809Y-66205284D01*
X160673976Y-66239359D01*
X160805628Y-66239359D01*
X160932795Y-66205284D01*
X160989802Y-66172371D01*
X160989802Y-67015965D01*
X161044223Y-67007347D01*
X161238833Y-66944113D01*
X161421151Y-66851218D01*
X161586696Y-66730941D01*
X161586697Y-66730941D01*
X161731384Y-66586254D01*
X161731384Y-66586253D01*
X161851663Y-66420706D01*
X161899036Y-66327730D01*
X161947010Y-66276934D01*
X162014830Y-66260138D01*
X162080966Y-66282675D01*
X162120005Y-66327728D01*
X162167515Y-66420970D01*
X162287830Y-66586572D01*
X162432588Y-66731330D01*
X162587551Y-66843915D01*
X162598192Y-66851646D01*
X162687014Y-66896903D01*
X162780578Y-66944577D01*
X162780580Y-66944577D01*
X162780583Y-66944579D01*
X162873698Y-66974834D01*
X162975267Y-67007836D01*
X163076359Y-67023847D01*
X163177450Y-67039859D01*
X163177451Y-67039859D01*
X163382153Y-67039859D01*
X163382154Y-67039859D01*
X163584336Y-67007836D01*
X163779021Y-66944579D01*
X163961412Y-66851646D01*
X164057703Y-66781687D01*
X164127015Y-66731330D01*
X164127017Y-66731327D01*
X164127021Y-66731325D01*
X164271768Y-66586578D01*
X164271770Y-66586574D01*
X164271773Y-66586572D01*
X164332472Y-66503025D01*
X164392089Y-66420969D01*
X164485022Y-66238578D01*
X164548279Y-66043893D01*
X164580302Y-65841711D01*
X164580302Y-65637007D01*
X167059302Y-65637007D01*
X167059302Y-65841710D01*
X167091324Y-66043893D01*
X167154583Y-66238582D01*
X167247517Y-66420972D01*
X167367830Y-66586572D01*
X167512588Y-66731330D01*
X167667551Y-66843915D01*
X167678192Y-66851646D01*
X167767014Y-66896903D01*
X167860578Y-66944577D01*
X167860580Y-66944577D01*
X167860583Y-66944579D01*
X167953698Y-66974834D01*
X168055267Y-67007836D01*
X168156359Y-67023847D01*
X168257450Y-67039859D01*
X168257451Y-67039859D01*
X168462153Y-67039859D01*
X168462154Y-67039859D01*
X168664336Y-67007836D01*
X168859021Y-66944579D01*
X169041412Y-66851646D01*
X169137703Y-66781687D01*
X169207015Y-66731330D01*
X169207017Y-66731327D01*
X169207021Y-66731325D01*
X169351768Y-66586578D01*
X169351770Y-66586574D01*
X169351773Y-66586572D01*
X169472086Y-66420973D01*
X169472088Y-66420970D01*
X169472089Y-66420969D01*
X169519318Y-66328276D01*
X169567291Y-66277482D01*
X169635112Y-66260687D01*
X169701247Y-66283224D01*
X169740287Y-66328278D01*
X169787517Y-66420973D01*
X169907830Y-66586572D01*
X170052588Y-66731330D01*
X170207551Y-66843915D01*
X170218192Y-66851646D01*
X170307014Y-66896903D01*
X170400578Y-66944577D01*
X170400580Y-66944577D01*
X170400583Y-66944579D01*
X170493698Y-66974834D01*
X170595267Y-67007836D01*
X170696359Y-67023847D01*
X170797450Y-67039859D01*
X170797451Y-67039859D01*
X171002153Y-67039859D01*
X171002154Y-67039859D01*
X171204336Y-67007836D01*
X171399021Y-66944579D01*
X171581412Y-66851646D01*
X171677703Y-66781687D01*
X171747015Y-66731330D01*
X171747017Y-66731327D01*
X171747021Y-66731325D01*
X171891768Y-66586578D01*
X171891770Y-66586574D01*
X171891773Y-66586572D01*
X172012086Y-66420973D01*
X172012088Y-66420970D01*
X172012089Y-66420969D01*
X172059318Y-66328276D01*
X172107291Y-66277482D01*
X172175112Y-66260687D01*
X172241247Y-66283224D01*
X172280287Y-66328278D01*
X172327517Y-66420973D01*
X172447830Y-66586572D01*
X172592588Y-66731330D01*
X172747551Y-66843915D01*
X172758192Y-66851646D01*
X172847014Y-66896903D01*
X172940578Y-66944577D01*
X172940580Y-66944577D01*
X172940583Y-66944579D01*
X173033698Y-66974834D01*
X173135267Y-67007836D01*
X173236359Y-67023847D01*
X173337450Y-67039859D01*
X173337451Y-67039859D01*
X173542153Y-67039859D01*
X173542154Y-67039859D01*
X173744336Y-67007836D01*
X173939021Y-66944579D01*
X174121412Y-66851646D01*
X174217703Y-66781687D01*
X174287015Y-66731330D01*
X174287017Y-66731327D01*
X174287021Y-66731325D01*
X174431768Y-66586578D01*
X174431770Y-66586574D01*
X174431773Y-66586572D01*
X174552086Y-66420973D01*
X174552088Y-66420970D01*
X174552089Y-66420969D01*
X174599318Y-66328276D01*
X174647291Y-66277482D01*
X174715112Y-66260687D01*
X174781247Y-66283224D01*
X174820287Y-66328278D01*
X174867517Y-66420973D01*
X174987830Y-66586572D01*
X175132588Y-66731330D01*
X175287551Y-66843915D01*
X175298192Y-66851646D01*
X175387014Y-66896903D01*
X175480578Y-66944577D01*
X175480580Y-66944577D01*
X175480583Y-66944579D01*
X175573698Y-66974834D01*
X175675267Y-67007836D01*
X175776359Y-67023847D01*
X175877450Y-67039859D01*
X175877451Y-67039859D01*
X176082153Y-67039859D01*
X176082154Y-67039859D01*
X176284336Y-67007836D01*
X176479021Y-66944579D01*
X176661412Y-66851646D01*
X176757703Y-66781687D01*
X176827015Y-66731330D01*
X176827017Y-66731327D01*
X176827021Y-66731325D01*
X176971768Y-66586578D01*
X176971770Y-66586574D01*
X176971773Y-66586572D01*
X177092086Y-66420973D01*
X177092088Y-66420970D01*
X177092089Y-66420969D01*
X177139318Y-66328276D01*
X177187291Y-66277482D01*
X177255112Y-66260687D01*
X177321247Y-66283224D01*
X177360287Y-66328278D01*
X177407517Y-66420973D01*
X177527830Y-66586572D01*
X177672588Y-66731330D01*
X177827551Y-66843915D01*
X177838192Y-66851646D01*
X177927014Y-66896903D01*
X178020578Y-66944577D01*
X178020580Y-66944577D01*
X178020583Y-66944579D01*
X178113698Y-66974834D01*
X178215267Y-67007836D01*
X178316359Y-67023847D01*
X178417450Y-67039859D01*
X178417451Y-67039859D01*
X178622153Y-67039859D01*
X178622154Y-67039859D01*
X178824336Y-67007836D01*
X179019021Y-66944579D01*
X179201412Y-66851646D01*
X179297703Y-66781687D01*
X179367015Y-66731330D01*
X179367017Y-66731327D01*
X179367021Y-66731325D01*
X179511768Y-66586578D01*
X179511770Y-66586574D01*
X179511773Y-66586572D01*
X179632086Y-66420973D01*
X179632088Y-66420970D01*
X179632089Y-66420969D01*
X179679318Y-66328276D01*
X179727291Y-66277482D01*
X179795112Y-66260687D01*
X179861247Y-66283224D01*
X179900287Y-66328278D01*
X179947517Y-66420973D01*
X180067830Y-66586572D01*
X180212588Y-66731330D01*
X180367551Y-66843915D01*
X180378192Y-66851646D01*
X180467014Y-66896903D01*
X180560578Y-66944577D01*
X180560580Y-66944577D01*
X180560583Y-66944579D01*
X180653698Y-66974834D01*
X180755267Y-67007836D01*
X180856359Y-67023847D01*
X180957450Y-67039859D01*
X180957451Y-67039859D01*
X181162153Y-67039859D01*
X181162154Y-67039859D01*
X181364336Y-67007836D01*
X181559021Y-66944579D01*
X181741412Y-66851646D01*
X181837703Y-66781687D01*
X181907015Y-66731330D01*
X181907017Y-66731327D01*
X181907021Y-66731325D01*
X182051768Y-66586578D01*
X182051770Y-66586574D01*
X182051773Y-66586572D01*
X182112472Y-66503025D01*
X182172089Y-66420969D01*
X182265022Y-66238578D01*
X182328279Y-66043893D01*
X182360302Y-65841711D01*
X182360302Y-65637007D01*
X182345946Y-65546366D01*
X182328279Y-65434824D01*
X182265020Y-65240135D01*
X182172221Y-65058009D01*
X182172089Y-65057749D01*
X182152109Y-65030248D01*
X182051773Y-64892145D01*
X181907015Y-64747387D01*
X181741415Y-64627074D01*
X181741414Y-64627073D01*
X181741412Y-64627072D01*
X181684455Y-64598050D01*
X181559025Y-64534140D01*
X181364336Y-64470881D01*
X181189797Y-64443237D01*
X181162154Y-64438859D01*
X180957450Y-64438859D01*
X180933131Y-64442710D01*
X180755267Y-64470881D01*
X180560578Y-64534140D01*
X180378188Y-64627074D01*
X180212588Y-64747387D01*
X180067830Y-64892145D01*
X179947517Y-65057745D01*
X179900287Y-65150439D01*
X179852312Y-65201235D01*
X179784491Y-65218030D01*
X179718356Y-65195493D01*
X179679317Y-65150439D01*
X179632221Y-65058009D01*
X179632089Y-65057749D01*
X179612109Y-65030248D01*
X179511773Y-64892145D01*
X179367015Y-64747387D01*
X179201415Y-64627074D01*
X179201414Y-64627073D01*
X179201412Y-64627072D01*
X179144455Y-64598050D01*
X179019025Y-64534140D01*
X178824336Y-64470881D01*
X178649797Y-64443237D01*
X178622154Y-64438859D01*
X178417450Y-64438859D01*
X178393131Y-64442710D01*
X178215267Y-64470881D01*
X178020578Y-64534140D01*
X177838188Y-64627074D01*
X177672588Y-64747387D01*
X177527830Y-64892145D01*
X177407517Y-65057745D01*
X177360287Y-65150439D01*
X177312312Y-65201235D01*
X177244491Y-65218030D01*
X177178356Y-65195493D01*
X177139317Y-65150439D01*
X177092221Y-65058009D01*
X177092089Y-65057749D01*
X177072109Y-65030248D01*
X176971773Y-64892145D01*
X176827015Y-64747387D01*
X176661415Y-64627074D01*
X176661414Y-64627073D01*
X176661412Y-64627072D01*
X176604455Y-64598050D01*
X176479025Y-64534140D01*
X176284336Y-64470881D01*
X176109797Y-64443237D01*
X176082154Y-64438859D01*
X175877450Y-64438859D01*
X175853131Y-64442710D01*
X175675267Y-64470881D01*
X175480578Y-64534140D01*
X175298188Y-64627074D01*
X175132588Y-64747387D01*
X174987830Y-64892145D01*
X174867517Y-65057745D01*
X174820287Y-65150439D01*
X174772312Y-65201235D01*
X174704491Y-65218030D01*
X174638356Y-65195493D01*
X174599317Y-65150439D01*
X174552221Y-65058009D01*
X174552089Y-65057749D01*
X174532109Y-65030248D01*
X174431773Y-64892145D01*
X174287015Y-64747387D01*
X174121415Y-64627074D01*
X174121414Y-64627073D01*
X174121412Y-64627072D01*
X174064455Y-64598050D01*
X173939025Y-64534140D01*
X173744336Y-64470881D01*
X173569797Y-64443237D01*
X173542154Y-64438859D01*
X173337450Y-64438859D01*
X173313131Y-64442710D01*
X173135267Y-64470881D01*
X172940578Y-64534140D01*
X172758188Y-64627074D01*
X172592588Y-64747387D01*
X172447830Y-64892145D01*
X172327517Y-65057745D01*
X172280287Y-65150439D01*
X172232312Y-65201235D01*
X172164491Y-65218030D01*
X172098356Y-65195493D01*
X172059317Y-65150439D01*
X172012221Y-65058009D01*
X172012089Y-65057749D01*
X171992109Y-65030248D01*
X171891773Y-64892145D01*
X171747015Y-64747387D01*
X171581415Y-64627074D01*
X171581414Y-64627073D01*
X171581412Y-64627072D01*
X171524455Y-64598050D01*
X171399025Y-64534140D01*
X171204336Y-64470881D01*
X171029797Y-64443237D01*
X171002154Y-64438859D01*
X170797450Y-64438859D01*
X170773131Y-64442710D01*
X170595267Y-64470881D01*
X170400578Y-64534140D01*
X170218188Y-64627074D01*
X170052588Y-64747387D01*
X169907830Y-64892145D01*
X169787517Y-65057745D01*
X169740287Y-65150439D01*
X169692312Y-65201235D01*
X169624491Y-65218030D01*
X169558356Y-65195493D01*
X169519317Y-65150439D01*
X169472221Y-65058009D01*
X169472089Y-65057749D01*
X169452109Y-65030248D01*
X169351773Y-64892145D01*
X169207015Y-64747387D01*
X169041415Y-64627074D01*
X169041414Y-64627073D01*
X169041412Y-64627072D01*
X168984455Y-64598050D01*
X168859025Y-64534140D01*
X168664336Y-64470881D01*
X168489797Y-64443237D01*
X168462154Y-64438859D01*
X168257450Y-64438859D01*
X168233131Y-64442710D01*
X168055267Y-64470881D01*
X167860578Y-64534140D01*
X167678188Y-64627074D01*
X167512588Y-64747387D01*
X167367830Y-64892145D01*
X167247517Y-65057745D01*
X167154583Y-65240135D01*
X167091324Y-65434824D01*
X167059302Y-65637007D01*
X164580302Y-65637007D01*
X164565946Y-65546366D01*
X164548279Y-65434824D01*
X164485020Y-65240135D01*
X164392221Y-65058009D01*
X164392089Y-65057749D01*
X164372109Y-65030248D01*
X164271773Y-64892145D01*
X164127015Y-64747387D01*
X163961415Y-64627074D01*
X163961414Y-64627073D01*
X163961412Y-64627072D01*
X163904455Y-64598050D01*
X163779025Y-64534140D01*
X163584336Y-64470881D01*
X163409797Y-64443237D01*
X163382154Y-64438859D01*
X163177450Y-64438859D01*
X163153131Y-64442710D01*
X162975267Y-64470881D01*
X162780578Y-64534140D01*
X162598188Y-64627074D01*
X162432588Y-64747387D01*
X162287830Y-64892145D01*
X162167515Y-65057747D01*
X162120005Y-65150989D01*
X162072030Y-65201785D01*
X162004209Y-65218579D01*
X161938074Y-65196041D01*
X161899036Y-65150987D01*
X161851663Y-65058011D01*
X161731384Y-64892464D01*
X161731384Y-64892463D01*
X161586697Y-64747776D01*
X161421151Y-64627499D01*
X161238831Y-64534603D01*
X161044215Y-64471368D01*
X160989802Y-64462749D01*
X160989802Y-65306347D01*
X160932795Y-65273434D01*
X160805628Y-65239359D01*
X160673976Y-65239359D01*
X160546809Y-65273434D01*
X160489802Y-65306347D01*
X160489802Y-64462749D01*
X160435388Y-64471368D01*
X160240772Y-64534603D01*
X160058452Y-64627499D01*
X159892907Y-64747776D01*
X159892906Y-64747776D01*
X159748219Y-64892463D01*
X159748219Y-64892464D01*
X159627942Y-65058009D01*
X159580287Y-65151538D01*
X159532312Y-65202334D01*
X159464491Y-65219129D01*
X159398356Y-65196591D01*
X159359317Y-65151538D01*
X159311661Y-65058009D01*
X159191384Y-64892464D01*
X159191384Y-64892463D01*
X159046697Y-64747776D01*
X158881151Y-64627499D01*
X158698831Y-64534603D01*
X158504215Y-64471368D01*
X158449802Y-64462749D01*
X158449802Y-65306347D01*
X158392795Y-65273434D01*
X158265628Y-65239359D01*
X158133976Y-65239359D01*
X158006809Y-65273434D01*
X157949802Y-65306347D01*
X157949802Y-64462749D01*
X157895388Y-64471368D01*
X157700772Y-64534603D01*
X157518452Y-64627499D01*
X157352909Y-64747774D01*
X157331147Y-64769535D01*
X157269822Y-64803017D01*
X157200131Y-64798030D01*
X157145093Y-64757336D01*
X157058990Y-64645124D01*
X157058984Y-64645117D01*
X156894882Y-64481015D01*
X156894875Y-64481009D01*
X156710745Y-64339721D01*
X156710743Y-64339720D01*
X156509762Y-64223685D01*
X156509754Y-64223681D01*
X156509752Y-64223680D01*
X156295330Y-64134863D01*
X156295331Y-64134863D01*
X156295328Y-64134862D01*
X156153203Y-64096780D01*
X156071149Y-64074794D01*
X156042386Y-64071007D01*
X155841052Y-64044500D01*
X155841045Y-64044500D01*
X155608955Y-64044500D01*
X155608947Y-64044500D01*
X155378851Y-64074794D01*
X155154671Y-64134862D01*
X154940254Y-64223677D01*
X154940237Y-64223685D01*
X154739256Y-64339720D01*
X154739254Y-64339721D01*
X154555124Y-64481009D01*
X154555117Y-64481015D01*
X154391015Y-64645117D01*
X154248598Y-64830719D01*
X154192170Y-64871921D01*
X154122424Y-64876076D01*
X154062541Y-64842913D01*
X153967015Y-64747387D01*
X153801415Y-64627074D01*
X153801414Y-64627073D01*
X153801412Y-64627072D01*
X153744455Y-64598050D01*
X153619025Y-64534140D01*
X153424336Y-64470881D01*
X153249797Y-64443237D01*
X153222154Y-64438859D01*
X153017450Y-64438859D01*
X152993131Y-64442710D01*
X152815267Y-64470881D01*
X152620578Y-64534140D01*
X152438188Y-64627074D01*
X152272588Y-64747387D01*
X152127830Y-64892145D01*
X152007517Y-65057745D01*
X151960287Y-65150439D01*
X151912312Y-65201235D01*
X151844491Y-65218030D01*
X151778356Y-65195493D01*
X151739317Y-65150439D01*
X151692221Y-65058009D01*
X151692089Y-65057749D01*
X151672109Y-65030248D01*
X151571773Y-64892145D01*
X151427015Y-64747387D01*
X151261415Y-64627074D01*
X151261414Y-64627073D01*
X151261412Y-64627072D01*
X151204455Y-64598050D01*
X151079025Y-64534140D01*
X150884336Y-64470881D01*
X150709797Y-64443237D01*
X150682154Y-64438859D01*
X150477450Y-64438859D01*
X150453131Y-64442710D01*
X150275267Y-64470881D01*
X150080578Y-64534140D01*
X149898188Y-64627074D01*
X149732588Y-64747387D01*
X149587830Y-64892145D01*
X149467517Y-65057745D01*
X149420287Y-65150439D01*
X149372312Y-65201235D01*
X149304491Y-65218030D01*
X149238356Y-65195493D01*
X149199317Y-65150439D01*
X149152221Y-65058009D01*
X149152089Y-65057749D01*
X149132109Y-65030248D01*
X149031773Y-64892145D01*
X148887015Y-64747387D01*
X148721415Y-64627074D01*
X148721414Y-64627073D01*
X148721412Y-64627072D01*
X148664455Y-64598050D01*
X148539025Y-64534140D01*
X148344336Y-64470881D01*
X148169797Y-64443237D01*
X148142154Y-64438859D01*
X147937450Y-64438859D01*
X147913131Y-64442710D01*
X147735267Y-64470881D01*
X147540578Y-64534140D01*
X147358188Y-64627074D01*
X147192588Y-64747387D01*
X147047834Y-64892141D01*
X147021470Y-64928429D01*
X146966140Y-64971094D01*
X146896526Y-64977073D01*
X146834731Y-64944467D01*
X146800374Y-64883628D01*
X146797862Y-64868797D01*
X146795079Y-64842913D01*
X146793893Y-64831876D01*
X146743598Y-64697028D01*
X146743597Y-64697027D01*
X146743595Y-64697023D01*
X146657349Y-64581814D01*
X146657346Y-64581811D01*
X146542137Y-64495565D01*
X146542130Y-64495561D01*
X146407284Y-64445267D01*
X146407285Y-64445267D01*
X146347685Y-64438860D01*
X146347683Y-64438859D01*
X146347675Y-64438859D01*
X146347666Y-64438859D01*
X144651931Y-64438859D01*
X144651925Y-64438860D01*
X144592318Y-64445267D01*
X144457473Y-64495561D01*
X144457466Y-64495565D01*
X144342257Y-64581811D01*
X144342254Y-64581814D01*
X144256008Y-64697023D01*
X144256004Y-64697030D01*
X144205710Y-64831876D01*
X144199303Y-64891475D01*
X144199302Y-64891494D01*
X144199302Y-66587229D01*
X144199303Y-66587235D01*
X144205710Y-66646842D01*
X144256004Y-66781687D01*
X144256008Y-66781694D01*
X144342254Y-66896903D01*
X144342257Y-66896906D01*
X144457466Y-66983152D01*
X144457473Y-66983156D01*
X144592319Y-67033450D01*
X144592318Y-67033450D01*
X144599246Y-67034194D01*
X144651929Y-67039859D01*
X146347674Y-67039858D01*
X146407285Y-67033450D01*
X146542133Y-66983155D01*
X146657348Y-66896905D01*
X146743598Y-66781690D01*
X146793893Y-66646842D01*
X146797863Y-66609915D01*
X146824598Y-66545370D01*
X146881990Y-66505520D01*
X146951815Y-66503025D01*
X147011904Y-66538676D01*
X147021469Y-66550288D01*
X147047834Y-66586576D01*
X147192588Y-66731330D01*
X147347551Y-66843915D01*
X147358192Y-66851646D01*
X147447014Y-66896903D01*
X147540578Y-66944577D01*
X147540580Y-66944577D01*
X147540583Y-66944579D01*
X147633698Y-66974834D01*
X147735267Y-67007836D01*
X147836359Y-67023847D01*
X147937450Y-67039859D01*
X147937451Y-67039859D01*
X148142153Y-67039859D01*
X148142154Y-67039859D01*
X148344336Y-67007836D01*
X148539021Y-66944579D01*
X148721412Y-66851646D01*
X148817703Y-66781687D01*
X148887015Y-66731330D01*
X148887017Y-66731327D01*
X148887021Y-66731325D01*
X149031768Y-66586578D01*
X149031770Y-66586574D01*
X149031773Y-66586572D01*
X149152086Y-66420973D01*
X149152088Y-66420970D01*
X149152089Y-66420969D01*
X149199318Y-66328276D01*
X149247291Y-66277482D01*
X149315112Y-66260687D01*
X149381247Y-66283224D01*
X149420287Y-66328278D01*
X149467517Y-66420973D01*
X149587830Y-66586572D01*
X149732588Y-66731330D01*
X149887551Y-66843915D01*
X149898192Y-66851646D01*
X149987014Y-66896903D01*
X150080578Y-66944577D01*
X150080580Y-66944577D01*
X150080583Y-66944579D01*
X150173698Y-66974834D01*
X150275267Y-67007836D01*
X150376359Y-67023847D01*
X150477450Y-67039859D01*
X150477451Y-67039859D01*
X150682153Y-67039859D01*
X150682154Y-67039859D01*
X150884336Y-67007836D01*
X151079021Y-66944579D01*
X151261412Y-66851646D01*
X151357703Y-66781687D01*
X151427015Y-66731330D01*
X151427017Y-66731327D01*
X151427021Y-66731325D01*
X151571768Y-66586578D01*
X151571770Y-66586574D01*
X151571773Y-66586572D01*
X151692086Y-66420973D01*
X151692088Y-66420970D01*
X151692089Y-66420969D01*
X151739318Y-66328276D01*
X151787291Y-66277482D01*
X151855112Y-66260687D01*
X151921247Y-66283224D01*
X151960287Y-66328278D01*
X152007517Y-66420973D01*
X152127830Y-66586572D01*
X152272588Y-66731330D01*
X152427551Y-66843915D01*
X152438192Y-66851646D01*
X152527014Y-66896903D01*
X152620578Y-66944577D01*
X152620580Y-66944577D01*
X152620583Y-66944579D01*
X152713698Y-66974834D01*
X152815267Y-67007836D01*
X152916359Y-67023847D01*
X153017450Y-67039859D01*
X153017451Y-67039859D01*
X153222153Y-67039859D01*
X153222154Y-67039859D01*
X153424336Y-67007836D01*
X153619021Y-66944579D01*
X153774207Y-66865507D01*
X153842874Y-66852612D01*
X153907614Y-66878888D01*
X153947872Y-66935994D01*
X153954500Y-66975993D01*
X153954500Y-68490272D01*
X153934815Y-68557311D01*
X153918181Y-68577953D01*
X124282568Y-98213566D01*
X114750127Y-107746007D01*
X114750123Y-107746011D01*
X114668065Y-107828068D01*
X114586008Y-107910125D01*
X114444721Y-108094254D01*
X114444720Y-108094256D01*
X114328685Y-108295237D01*
X114328677Y-108295254D01*
X114239863Y-108509669D01*
X114179792Y-108733854D01*
X114149499Y-108963947D01*
X110000000Y-108963947D01*
X110000000Y-60124000D01*
X110019685Y-60056961D01*
X110072489Y-60011206D01*
X110124000Y-60000000D01*
X189876000Y-60000000D01*
X189943039Y-60019685D01*
G37*
%TD.AperFunction*%
%TD*%
M02*
