%TF.GenerationSoftware,KiCad,Pcbnew,10.0.0*%
%TF.CreationDate,2026-04-27T08:56:54-03:00*%
%TF.ProjectId,Dise_o_v1,44697365-f16f-45f7-9631-2e6b69636164,rev?*%
%TF.SameCoordinates,Original*%
%TF.FileFunction,Soldermask,Bot*%
%TF.FilePolarity,Negative*%
%FSLAX46Y46*%
G04 Gerber Fmt 4.6, Leading zero omitted, Abs format (unit mm)*
G04 Created by KiCad (PCBNEW 10.0.0) date 2026-04-27 08:56:54*
%MOMM*%
%LPD*%
G01*
G04 APERTURE LIST*
G04 Aperture macros list*
%AMRoundRect*
0 Rectangle with rounded corners*
0 $1 Rounding radius*
0 $2 $3 $4 $5 $6 $7 $8 $9 X,Y pos of 4 corners*
0 Add a 4 corners polygon primitive as box body*
4,1,4,$2,$3,$4,$5,$6,$7,$8,$9,$2,$3,0*
0 Add four circle primitives for the rounded corners*
1,1,$1+$1,$2,$3*
1,1,$1+$1,$4,$5*
1,1,$1+$1,$6,$7*
1,1,$1+$1,$8,$9*
0 Add four rect primitives between the rounded corners*
20,1,$1+$1,$2,$3,$4,$5,0*
20,1,$1+$1,$4,$5,$6,$7,0*
20,1,$1+$1,$6,$7,$8,$9,0*
20,1,$1+$1,$8,$9,$2,$3,0*%
G04 Aperture macros list end*
%ADD10R,1.700000X1.700000*%
%ADD11C,1.700000*%
%ADD12R,1.600000X1.600000*%
%ADD13O,1.600000X1.600000*%
%ADD14RoundRect,0.250001X1.149999X-1.149999X1.149999X1.149999X-1.149999X1.149999X-1.149999X-1.149999X0*%
%ADD15C,2.800000*%
%ADD16C,3.200000*%
G04 APERTURE END LIST*
D10*
%TO.C,Servo1*%
X141000000Y-130000000D03*
D11*
X138460000Y-130000000D03*
X135920000Y-130000000D03*
%TD*%
D10*
%TO.C,Fuente_VCC1*%
X168000000Y-137500000D03*
%TD*%
D12*
%TO.C,A1*%
X145499802Y-65739359D03*
D13*
X148039802Y-65739359D03*
X150579802Y-65739359D03*
X153119802Y-65739359D03*
X155659802Y-65739359D03*
X158199802Y-65739359D03*
X160739802Y-65739359D03*
X163279802Y-65739359D03*
X168359802Y-65739359D03*
X170899802Y-65739359D03*
X173439802Y-65739359D03*
X175979802Y-65739359D03*
X178519802Y-65739359D03*
X181059802Y-65739359D03*
X181059802Y-113999359D03*
X178519802Y-113999359D03*
X175979802Y-113999359D03*
X173439802Y-113999359D03*
X170899802Y-113999359D03*
X168359802Y-113999359D03*
X165819802Y-113999359D03*
X163279802Y-113999359D03*
X159219802Y-113999359D03*
X156679802Y-113999359D03*
X154139802Y-113999359D03*
X151599802Y-113999359D03*
X149059802Y-113999359D03*
X146519802Y-113999359D03*
X143979802Y-113999359D03*
X141439802Y-113999359D03*
X138899802Y-113999359D03*
X136359802Y-113999359D03*
%TD*%
D10*
%TO.C,HC-SR041*%
X159810000Y-130000000D03*
D11*
X157270000Y-130000000D03*
X154730000Y-130000000D03*
X152190000Y-130000000D03*
%TD*%
D14*
%TO.C,Bornera1*%
X184967500Y-131250000D03*
D15*
X184967500Y-126250000D03*
%TD*%
D10*
%TO.C,Fuente_GND1*%
X176000000Y-137500000D03*
%TD*%
D16*
%TO.C,REF\u002A\u002A*%
X104959455Y-145000000D03*
%TD*%
%TO.C,REF\u002A\u002A*%
X195000000Y-145000000D03*
%TD*%
%TO.C,REF\u002A\u002A*%
X104787890Y-55440529D03*
%TD*%
%TO.C,REF\u002A\u002A*%
X194840966Y-55625063D03*
%TD*%
D10*
%TO.C,IMU1*%
X115920000Y-130000000D03*
D11*
X118460000Y-130000000D03*
X121000000Y-130000000D03*
X123540000Y-130000000D03*
%TD*%
M02*
